<?xml version="1.0" standalone="no"?>
<!DOCTYPE svg PUBLIC "-//W3C//DTD SVG 1.1//EN" "http://www.w3.org/Graphics/SVG/1.1/DTD/svg11.dtd" >
<svg xmlns="http://www.w3.org/2000/svg">
    <defs>
        <font id="Neutraface2Text-Book">
            <font-face font-family="Neutraface2Text-Book"
                       units-per-em="1000"
                       ascent="780"
                       descent="-220"
                       bbox="-57 -257 1174 963"
                    />
            <missing-glyph horiz-adv-x="0" />
            
            <glyph glyph-name="!" unicode="&#x21;" horiz-adv-x="175" d=" M95,190 L83,680 L161,680 L149,190 M143,-7 Q101,-7 85,8.5 Q69,24 69,46 Q69,69 85,84.5 Q101,100 122,100 Q143,100 159,84.5 Q175,69 175,46 Q175,24 143,-7"/> 
            <glyph glyph-name="&quot;" unicode="&#x22;" horiz-adv-x="243" d=" M178,470 L169,680 L243,680 L235,470 M48,470 L40,680 L114,680 L106,470"/> 
            <glyph glyph-name="#" unicode="&#x23;" horiz-adv-x="432" d=" M68,176 L96,284 L29,284 L29,340 L109,340 L136,448 L64,448 L64,504 L150,504 L177,613 L235,613 L208,504 L307,504 L335,613 L393,613 L366,504 L432,504 L432,448 L352,448 L325,340 L396,340 L396,284 L310,284 L284,176 L225,176 L252,284 L153,284 L127,176 M167,340 L267,340 L294,448 L195,448"/> 
            <glyph glyph-name="$" unicode="&#x24;" horiz-adv-x="404" d=" M191,-6 Q128,0 83,31.5 Q38,63 18,104 L72,133 Q111,62 191,50 L191,237 Q116,258 80.5,292 Q45,326 45,381 Q45,434 85,470.5 Q125,507 191,511 L191,617 L242,617 L242,510 Q289,503 324,478.5 Q359,454 377,423 L327,391 Q298,442 242,454 L242,288 L248,286 Q328,262 366,226.5 Q404,191 404,134 Q404,72 361.5,34.5 Q319,-3 242,-7 L242,-119 L191,-119 M191,456 Q111,448 111,384 Q111,353 129,335.5 Q147,318 191,304 M242,49 Q289,53 313,74 Q337,95 337,129 Q337,165 316,185 Q295,205 242,221"/> 
            <glyph glyph-name="%" unicode="&#x25;" horiz-adv-x="738" d=" M239,218 Q117,218 72.5,260 Q28,302 28,365 Q28,428 72.5,470 Q117,512 178,512 Q239,512 283,470 Q327,428 327,365 Q327,302 239,218 M191,0 L506,504 L576,504 L261,0 M650,-8 Q528,-8 484,33.5 Q440,75 440,138 Q440,201 484,243 Q528,285 589,285 Q650,285 694,243 Q738,201 738,138 Q738,75 650,-8 M141,273 Q215,273 240.5,299 Q266,325 266,365 Q266,406 240.5,431.5 Q215,457 178,457 Q141,457 115,431.5 Q89,406 89,365 Q89,325 141,273 M552,46 Q626,46 651.5,72 Q677,98 677,138 Q677,178 651.5,204 Q626,230 589,230 Q552,230 526.5,204 Q501,178 501,138 Q501,98 552,46"/> 
            <glyph glyph-name="&amp;" unicode="&#x26;" horiz-adv-x="633" d=" M316,385 L466,203 Q495,273 495,368 L564,368 Q564,242 513,146 L633,0 L546,0 L473,88 Q388,-8 259,-8 Q160,-8 101.5,42.5 Q43,93 43,177 Q43,254 86.5,301.5 Q130,349 218,397 L206,412 Q151,480 151,548 Q151,608 191,648 Q231,688 297,688 Q361,688 401,648.5 Q441,609 441,549 Q441,457 316,385 M279,430 Q375,486 375,549 Q375,585 353.5,606.5 Q332,628 298,628 Q262,628 241,607 Q220,586 220,549 Q220,501 260,453 M430,140 L254,353 Q186,316 152,277.5 Q118,239 118,181 Q118,122 155,89 Q192,56 259,56 Q366,56 430,140"/> 
            <glyph glyph-name="'" unicode="&#x27;" horiz-adv-x="114" d=" M48,470 L40,680 L114,680 L106,470"/> 
            <glyph glyph-name="(" unicode="&#x28;" horiz-adv-x="260" d=" M216,-136 Q44,40 44,291 Q44,542 216,718 L260,682 Q117,515 117,291 Q117,67 260,-100"/> 
            <glyph glyph-name=")" unicode="&#x29;" horiz-adv-x="244" d=" M71,-136 L28,-100 Q170,66 170,291 Q170,516 28,682 L71,718 Q244,541 244,291 Q244,41 71,-136"/> 
            <glyph glyph-name="*" unicode="&#x2A;" horiz-adv-x="343" d=" M165,375 L180,500 L82,427 L51,481 L168,528 L51,575 L82,629 L180,557 L165,680 L228,680 L213,557 L312,629 L343,575 L225,528 L342,481 L312,427 L213,500 L228,375"/> 
            <glyph glyph-name="+" unicode="&#x2B;" horiz-adv-x="334" d=" M154,96 L154,221 L39,221 L39,283 L154,283 L154,408 L218,408 L218,283 L334,283 L334,221 L218,221 L218,96"/> 
            <glyph glyph-name="," unicode="&#x2C;" horiz-adv-x="155" d=" M44,-112 L83,-1 Q47,11 47,48 Q47,70 63.5,86 Q80,102 101,102 Q123,102 139,86 Q155,70 155,48 Q155,30 143,8 L83,-112"/> 
            <glyph glyph-name="-" unicode="&#x2D;" horiz-adv-x="239" d=" M46,200 L46,263 L239,263 L239,200"/> 
            <glyph glyph-name="." unicode="&#x2E;" horiz-adv-x="155" d=" M101,-7 Q80,-7 63.5,9 Q47,25 47,48 Q47,71 63,86.5 Q79,102 101,102 Q123,102 139,86.5 Q155,71 155,48 Q155,25 139,9 Q123,-7 101,-7"/> 
            <glyph glyph-name="/" unicode="&#x2F;" horiz-adv-x="385" d=" M15,-128 L315,722 L385,722 L85,-128"/> 
            <glyph glyph-name="0" unicode="&#x30;" horiz-adv-x="570" d=" M413,-8 Q197,-8 119,67 Q41,142 41,252 Q41,364 119,438 Q197,512 305,512 Q414,512 492,438 Q570,364 570,252 Q570,142 413,-8 M224,55 Q386,55 441.5,111 Q497,167 497,252 Q497,338 441.5,393.5 Q386,449 305,449 Q224,449 169.5,394 Q115,339 115,252 Q115,167 224,55"/> 
            <glyph glyph-name="1" unicode="&#x31;" horiz-adv-x="206" d=" M135,0 L135,444 L24,444 L24,504 L206,504 L206,0"/> 
            <glyph glyph-name="2" unicode="&#x32;" horiz-adv-x="423" d=" M29,0 L29,9 L232,194 Q288,245 313,280.5 Q338,316 338,355 Q338,400 311,424 Q284,448 240,448 Q149,448 115,346 L51,364 Q69,433 119.5,472.5 Q170,512 239,512 Q318,512 364,470 Q410,428 410,358 Q410,310 379,263.5 Q348,217 288,162 L212,93 Q204,85 191,76.5 Q178,68 169,63 L160,58 Q197,61 216,61 L423,61 L423,0"/> 
            <glyph glyph-name="3" unicode="&#x33;" horiz-adv-x="454" d=" M238,-103 Q162,-103 106,-68 Q50,-33 22,27 L83,58 Q128,-40 238,-40 Q299,-40 339.5,-3.5 Q380,33 380,99 Q380,163 339,195.5 Q298,228 228,228 Q181,228 143,210 L136,220 L297,415 L327,448 Q302,444 279,444 L73,444 L73,504 L437,504 L437,497 L281,309 Q262,284 249,280 Q337,280 395.5,230.5 Q454,181 454,98 Q454,9 393,-47 Q332,-103 238,-103"/> 
            <glyph glyph-name="4" unicode="&#x34;" horiz-adv-x="488" d=" M413,80 L488,80 L488,21 L413,21 L413,-94 L343,-94 L343,21 L21,21 L21,55 L403,514 L413,514 M343,80 L343,307 L346,360 Q330,336 316,318 L150,113 L114,77 Q140,80 162,80"/> 
            <glyph glyph-name="5" unicode="&#x35;" horiz-adv-x="446" d=" M231,-103 Q159,-103 107.5,-72.5 Q56,-42 31,6 L90,38 Q134,-40 231,-40 Q295,-40 333.5,-2.5 Q372,35 372,96 Q372,159 336,194.5 Q300,230 230,230 Q150,230 87,177 L78,180 L78,504 L413,504 L413,444 L139,444 L139,263 Q180,291 245,291 Q336,291 391,236.5 Q446,182 446,95 Q446,9 386.5,-47 Q327,-103 231,-103"/> 
            <glyph glyph-name="6" unicode="&#x36;" horiz-adv-x="466" d=" M346,-8 Q164,-8 103,48.5 Q42,105 42,193 Q42,263 107,359 L277,610 L356,610 L219,407 Q212,398 200,385 Q188,372 180,364 L171,355 Q216,391 271,391 Q355,391 410.5,335.5 Q466,280 466,194 Q466,106 346,-8 M254,54 Q316,54 355.5,94 Q395,134 395,194 Q395,257 357,295.5 Q319,334 254,334 Q191,334 152,293.5 Q113,253 113,194 Q113,133 151.5,93.5 Q190,54 254,54"/> 
            <glyph glyph-name="7" unicode="&#x37;" horiz-adv-x="423" d=" M76,-94 L328,444 L33,444 L33,504 L423,504 L423,495 L148,-94"/> 
            <glyph glyph-name="8" unicode="&#x38;" horiz-adv-x="480" d=" M260,-9 Q163,-9 102,43 Q41,95 41,177 Q41,236 76.5,278.5 Q112,321 172,339 Q131,355 107.5,387.5 Q84,420 84,464 Q84,531 133.5,574.5 Q183,618 260,618 Q339,618 388,574.5 Q437,531 437,464 Q437,374 349,338 Q409,320 444.5,278 Q480,236 480,177 Q480,95 419,43 Q358,-9 260,-9 M260,55 Q326,55 367,89.5 Q408,124 408,181 Q408,239 367,274 Q326,309 260,309 Q194,309 153,274 Q112,239 112,181 Q112,123 152.5,89 Q193,55 260,55 M260,366 Q307,366 336.5,393 Q366,420 366,463 Q366,506 336.5,532.5 Q307,559 260,559 Q213,559 183.5,532.5 Q154,506 154,463 Q154,419 183,392.5 Q212,366 260,366"/> 
            <glyph glyph-name="9" unicode="&#x39;" horiz-adv-x="472" d=" M171,-94 L299,97 Q313,118 339,141 Q297,109 243,109 Q156,109 99,164.5 Q42,220 42,308 Q42,395 103.5,453.5 Q165,512 257,512 Q349,512 410.5,455.5 Q472,399 472,309 Q472,267 456,229 Q440,191 406,140 L250,-94 M256,165 Q320,165 360,206.5 Q400,248 400,308 Q400,369 360.5,409 Q321,449 257,449 Q193,449 153,409.5 Q113,370 113,308 Q113,244 152,204.5 Q191,165 256,165"/> 
            <glyph glyph-name=":" unicode="&#x3A;" horiz-adv-x="160" d=" M106,217 Q85,217 68.5,233 Q52,249 52,272 Q52,295 68,310.5 Q84,326 106,326 Q128,326 144,310.5 Q160,295 160,272 Q160,249 144,233 Q128,217 106,217 M106,-7 Q85,-7 68.5,9 Q52,25 52,48 Q52,71 68,86.5 Q84,102 106,102 Q128,102 144,86.5 Q160,71 160,48 Q160,25 144,9 Q128,-7 106,-7"/> 
            <glyph glyph-name=";" unicode="&#x3B;" horiz-adv-x="160" d=" M106,217 Q85,217 68.5,233 Q52,249 52,272 Q52,295 68,310.5 Q84,326 106,326 Q128,326 144,310.5 Q160,295 160,272 Q160,249 144,233 Q128,217 106,217 M49,-112 L88,-1 Q52,11 52,48 Q52,70 68.5,86 Q85,102 106,102 Q128,102 144,86 Q160,70 160,48 Q160,30 148,8 L88,-112"/> 
            <glyph glyph-name="&lt;" unicode="&#x3C;" horiz-adv-x="307" d=" M307,94 L36,239 L36,249 L307,392 L307,328 L139,244 L307,159"/> 
            <glyph glyph-name="=" unicode="&#x3D;" horiz-adv-x="329" d=" M42,282 L42,343 L329,343 L329,282 M42,152 L42,214 L329,214 L329,152"/> 
            <glyph glyph-name="&gt;" unicode="&#x3E;" horiz-adv-x="320" d=" M49,94 L49,158 L217,242 L49,327 L49,392 L320,247 L320,237"/> 
            <glyph glyph-name="?" unicode="&#x3F;" horiz-adv-x="419" d=" M174,187 L174,363 L207,363 Q272,363 309.5,401 Q347,439 347,497 Q347,556 312.5,590.5 Q278,625 222,625 Q172,625 140,604 Q108,583 85,537 L27,567 Q52,626 102.5,657 Q153,688 222,688 Q310,688 364.5,635.5 Q419,583 419,497 Q419,418 369.5,366 Q320,314 240,308 L240,187 M227,-7 Q185,-7 169,8.5 Q153,24 153,46 Q153,69 169,84.5 Q185,100 206,100 Q227,100 243,84.5 Q259,69 259,46 Q259,24 227,-7"/> 
            <glyph glyph-name="@" unicode="&#x40;" horiz-adv-x="837" d=" M448,-206 Q278,-206 163.5,-96.5 Q49,13 49,189 Q49,359 165.5,472.5 Q282,586 447,586 Q616,586 726.5,480.5 Q837,375 837,217 Q837,106 794.5,50 Q752,-6 682,-6 Q582,-6 566,88 Q523,-8 422,-8 Q347,-8 297,46 Q247,100 247,183 Q247,266 297,321.5 Q347,377 421,377 Q513,377 554,291 L552,367 L621,367 L621,136 Q621,92 635.5,70 Q650,48 684,48 Q725,48 750,89.5 Q775,131 775,216 Q775,354 685.5,442 Q596,530 447,530 Q302,530 208.5,432.5 Q115,335 115,189 Q115,41 206.5,-55 Q298,-151 448,-151 Q538,-151 612,-111 L638,-161 Q557,-206 448,-206 M436,50 Q486,50 520,88.5 Q554,127 554,183 Q554,239 520,278.5 Q486,318 436,318 Q384,318 351,279 Q318,240 318,183 Q318,126 351,88 Q384,50 436,50"/> 
            <glyph glyph-name="A" unicode="&#x41;" horiz-adv-x="619" d=" M194,215 L456,215 L351,475 Q345,489 338.5,509 Q332,529 328.5,542 Q325,555 325,556 L321,542 Q317,529 310.5,509.5 Q304,490 298,476 M37,0 L319,687 L331,687 L619,0 L543,0 L481,153 L169,153 L108,0"/> 
            <glyph glyph-name="B" unicode="&#x42;" horiz-adv-x="547" d=" M93,0 L93,680 L318,680 Q413,680 463,632 Q513,584 513,507 Q513,394 414,362 Q547,332 547,191 Q547,104 494,52 Q441,0 336,0 M165,64 L331,64 Q474,64 474,195 Q474,258 437,292 Q400,326 327,326 L165,326 M165,389 L322,389 Q383,389 412,419.5 Q441,450 441,502 Q441,555 410,585.5 Q379,616 312,616 L165,616"/> 
            <glyph glyph-name="C" unicode="&#x43;" horiz-adv-x="683" d=" M403,-8 Q256,-8 155,90 Q54,188 54,340 Q54,492 155,590 Q256,688 403,688 Q585,688 673,556 L618,516 Q546,623 403,623 Q284,623 206.5,542.5 Q129,462 129,340 Q129,218 206.5,137.5 Q284,57 403,57 Q548,57 627,171 L683,132 Q637,65 565,28.5 Q493,-8 403,-8"/> 
            <glyph glyph-name="D" unicode="&#x44;" horiz-adv-x="626" d=" M93,0 L93,680 L258,680 Q428,680 527,587.5 Q626,495 626,340 Q626,185 527,92.5 Q428,0 258,0 M165,65 L253,65 Q399,65 474.5,139.5 Q550,214 550,340 Q550,466 474.5,540.5 Q399,615 253,615 L165,615"/> 
            <glyph glyph-name="E" unicode="&#x45;" horiz-adv-x="521" d=" M93,0 L93,680 L507,680 L507,616 L165,616 L165,373 L470,373 L470,310 L165,310 L165,64 L521,64 L521,0"/> 
            <glyph glyph-name="F" unicode="&#x46;" horiz-adv-x="502" d=" M93,0 L93,680 L502,680 L502,616 L165,616 L165,356 L471,356 L471,291 L165,291 L165,0"/> 
            <glyph glyph-name="G" unicode="&#x47;" horiz-adv-x="679" d=" M410,-8 Q257,-8 155.5,89.5 Q54,187 54,340 Q54,492 154,590 Q254,688 404,688 Q559,688 641,600 L592,551 Q523,623 404,623 Q284,623 206.5,542.5 Q129,462 129,340 Q129,218 208,137.5 Q287,57 410,57 Q534,57 611,119 L611,262 L409,262 L409,326 L679,326 L679,86 Q583,-8 410,-8"/> 
            <glyph glyph-name="H" unicode="&#x48;" horiz-adv-x="601" d=" M93,0 L93,680 L165,680 L165,363 L529,363 L529,680 L601,680 L601,0 L529,0 L529,298 L165,298 L165,0"/> 
            <glyph glyph-name="I" unicode="&#x49;" horiz-adv-x="169" d=" M96,0 L96,680 L169,680 L169,0"/> 
            <glyph glyph-name="J" unicode="&#x4A;" horiz-adv-x="391" d=" M209,-8 Q88,-8 33,94 L92,131 Q135,57 206,57 Q258,57 288,87.5 Q318,118 318,181 L318,680 L391,680 L391,179 Q391,88 341,40 Q291,-8 209,-8"/> 
            <glyph glyph-name="K" unicode="&#x4B;" horiz-adv-x="577" d=" M93,0 L93,680 L165,680 L165,375 Q165,339 160,286 Q182,331 207,363 L467,680 L549,680 L302,376 L577,0 L489,0 L255,323 L165,216 L165,0"/> 
            <glyph glyph-name="L" unicode="&#x4C;" horiz-adv-x="486" d=" M93,0 L93,680 L165,680 L165,64 L486,64 L486,0"/> 
            <glyph glyph-name="M" unicode="&#x4D;" horiz-adv-x="744" d=" M93,0 L93,688 L103,688 L419,293 L733,688 L744,688 L744,0 L674,0 L674,449 Q674,462 675,481 Q676,500 676,513 L677,526 Q676,525 668.5,513.5 Q661,502 649.5,484.5 Q638,467 629,456 L423,196 L411,196 L208,456 Q173,497 159,526 L160,520 Q160,515 160.5,507 Q161,499 161.5,489 Q162,479 162.5,468 Q163,457 163,449 L163,0"/> 
            <glyph glyph-name="N" unicode="&#x4E;" horiz-adv-x="620" d=" M608,-7 L202,473 Q169,511 155,535 Q155,534 156.5,520 Q158,506 159.5,488.5 Q161,471 161,459 L161,0 L93,0 L93,687 L105,687 L511,207 Q517,199 525.5,188 Q534,177 540,168.5 Q546,160 552,152.5 Q558,145 558,144 L557,158 Q556,171 554.5,189.5 Q553,208 553,221 L553,680 L620,680 L620,-7"/> 
            <glyph glyph-name="O" unicode="&#x4F;" horiz-adv-x="753" d=" M403,-8 Q256,-8 155,90 Q54,188 54,340 Q54,492 155,590 Q256,688 403,688 Q551,688 652,590 Q753,492 753,340 Q753,188 652,90 Q551,-8 403,-8 M403,57 Q522,57 600,137.5 Q678,218 678,340 Q678,462 600,542.5 Q522,623 403,623 Q285,623 207,542.5 Q129,462 129,340 Q129,218 207,137.5 Q285,57 403,57"/> 
            <glyph glyph-name="P" unicode="&#x50;" horiz-adv-x="534" d=" M93,0 L93,680 L292,680 Q404,680 469,626 Q534,572 534,469 Q534,367 469,312.5 Q404,258 292,258 L165,258 L165,0 M165,322 L288,322 Q460,322 460,469 Q460,616 288,616 L165,616"/> 
            <glyph glyph-name="Q" unicode="&#x51;" horiz-adv-x="754" d=" M651,89 L754,-21 L704,-63 L600,49 Q511,-8 403,-8 Q256,-8 155,90 Q54,188 54,340 Q54,492 155,590 Q256,688 403,688 Q551,688 652,590 Q753,492 753,340 Q753,189 651,89 M554,99 L451,211 L500,253 L604,140 Q678,219 678,340 Q678,462 600,542.5 Q522,623 403,623 Q285,623 207,542.5 Q129,462 129,340 Q129,218 207,137.5 Q285,57 403,57 Q489,57 554,99"/> 
            <glyph glyph-name="R" unicode="&#x52;" horiz-adv-x="562" d=" M93,0 L93,680 L297,680 Q408,680 473.5,627 Q539,574 539,472 Q539,399 501.5,350 Q464,301 396,280 L562,0 L477,0 L321,268 Q311,267 289,267 L165,267 L165,0 M165,329 L293,329 Q464,329 464,472 Q464,616 293,616 L165,616"/> 
            <glyph glyph-name="S" unicode="&#x53;" horiz-adv-x="477" d=" M266,-8 Q98,-8 29,130 L89,162 Q117,113 157.5,84.5 Q198,56 264,56 Q325,56 365,87.5 Q405,119 405,172 Q405,221 375,252.5 Q345,284 277,314 L223,339 Q145,374 109,415.5 Q73,457 73,525 Q73,598 123.5,643 Q174,688 252,688 Q375,688 436,586 L378,550 Q332,624 252,624 Q202,624 173,597.5 Q144,571 144,527 Q144,484 168,458.5 Q192,433 252,405 L306,380 Q395,341 436,293.5 Q477,246 477,172 Q477,89 418,40.5 Q359,-8 266,-8"/> 
            <glyph glyph-name="T" unicode="&#x54;" horiz-adv-x="523" d=" M242,0 L242,616 L33,616 L33,680 L523,680 L523,616 L314,616 L314,0"/> 
            <glyph glyph-name="U" unicode="&#x55;" horiz-adv-x="575" d=" M439,-8 Q223,-8 155,54.5 Q87,117 87,232 L87,680 L159,680 L159,237 Q159,148 204.5,102 Q250,56 331,56 Q412,56 457.5,102 Q503,148 503,237 L503,680 L575,680 L575,232 Q575,117 439,-8"/> 
            <glyph glyph-name="V" unicode="&#x56;" horiz-adv-x="619" d=" M324,-7 L37,680 L115,680 L302,219 L331,127 Q346,185 360,219 L546,680 L619,680 L336,-7"/> 
            <glyph glyph-name="W" unicode="&#x57;" horiz-adv-x="918" d=" M260,-7 L35,680 L112,680 L255,227 Q260,208 274,153 Q286,202 296,227 L473,687 L485,687 L662,227 Q674,194 684,153 Q701,220 703,227 L845,680 L918,680 L694,-7 L682,-7 L499,477 Q495,486 491.5,498 Q488,510 485.5,519 Q483,528 481,536 L479,543 L477,536 Q475,528 472,519 Q469,510 465,498 Q461,486 458,477 L272,-7"/> 
            <glyph glyph-name="X" unicode="&#x58;" horiz-adv-x="593" d=" M43,0 L276,370 L80,680 L162,680 L297,468 L319,421 Q329,451 340,468 L474,680 L553,680 L358,370 L593,0 L511,0 L338,272 Q319,302 315,319 L312,311 Q308,303 303,291 Q298,279 294,272 L122,0"/> 
            <glyph glyph-name="Y" unicode="&#x59;" horiz-adv-x="576" d=" M271,0 L271,250 L34,680 L116,680 L280,379 Q286,368 293,351.5 Q300,335 304.5,323 Q309,311 309,310 Q316,338 338,379 L501,680 L576,680 L345,252 L345,0"/> 
            <glyph glyph-name="Z" unicode="&#x5A;" horiz-adv-x="533" d=" M39,0 L39,11 L419,616 L93,616 L93,680 L531,680 L531,669 L152,64 L533,64 L533,0"/> 
            <glyph glyph-name="[" unicode="&#x5B;" horiz-adv-x="269" d=" M76,-128 L76,722 L269,722 L269,662 L146,662 L146,-68 L269,-68 L269,-128"/> 
            <glyph glyph-name="\" unicode="&#x5C;" horiz-adv-x="414" d=" M344,-128 L43,722 L113,722 L414,-128"/> 
            <glyph glyph-name="]" unicode="&#x5D;" horiz-adv-x="230" d=" M36,-128 L36,-68 L159,-68 L159,662 L36,662 L36,722 L230,722 L230,-128"/> 
            <glyph glyph-name="^" unicode="&#x5E;" horiz-adv-x="349" d=" M68,463 L204,688 L213,688 L349,463 L291,463 L209,589 L126,463"/> 
            <glyph glyph-name="_" unicode="&#x5F;" horiz-adv-x="258" d=" M-2,-128 L-2,-66 L258,-66 L258,-128"/> 
            <glyph glyph-name="`" unicode="&#x60;" horiz-adv-x="279" d=" M224,498 L131,691 L211,691 L279,498"/> 
            <glyph glyph-name="a" unicode="&#x61;" horiz-adv-x="401" d=" M331,243 L331,253 Q331,364 234,364 Q158,364 113,304 L70,343 Q129,423 239,423 Q311,423 356,380 Q401,337 401,254 L401,0 L331,0 L334,62 Q287,-8 197,-8 Q128,-8 86.5,24 Q45,56 45,118 Q45,179 89,211 Q133,243 202,243 M331,190 L207,190 Q113,190 113,121 Q113,49 213,49 Q262,49 296.5,73.5 Q331,98 331,138"/> 
            <glyph glyph-name="b" unicode="&#x62;" horiz-adv-x="503" d=" M302,-8 Q248,-8 206,18.5 Q164,45 142,89 L144,0 L75,0 L75,722 L144,722 L144,329 Q195,423 303,423 Q388,423 445.5,361.5 Q503,300 503,208 Q503,115 445,53.5 Q387,-8 302,-8 M288,53 Q353,53 392,96.5 Q431,140 431,208 Q431,275 392,318 Q353,361 288,361 Q222,361 181.5,318 Q141,275 141,208 Q141,140 181.5,96.5 Q222,53 288,53"/> 
            <glyph glyph-name="c" unicode="&#x63;" horiz-adv-x="430" d=" M263,-8 Q172,-8 110,54 Q48,116 48,207 Q48,298 110,360.5 Q172,423 263,423 Q365,423 426,349 L376,308 Q336,361 263,361 Q198,361 159,317.5 Q120,274 120,207 Q120,140 159,96.5 Q198,53 263,53 Q337,53 382,107 L430,66 Q369,-8 263,-8"/> 
            <glyph glyph-name="d" unicode="&#x64;" horiz-adv-x="476" d=" M249,-8 Q164,-8 106,53.5 Q48,115 48,208 Q48,300 106,361.5 Q164,423 248,423 Q356,423 407,329 L407,722 L476,722 L476,0 L407,0 L409,89 Q387,45 345,18.5 Q303,-8 249,-8 M263,53 Q329,53 369.5,96.5 Q410,140 410,208 Q410,275 369.5,318 Q329,361 263,361 Q198,361 159,318 Q120,275 120,208 Q120,140 159,96.5 Q198,53 263,53"/> 
            <glyph glyph-name="e" unicode="&#x65;" horiz-adv-x="470" d=" M118,184 Q125,123 165,87 Q205,51 272,51 Q354,51 403,106 L446,64 Q382,-8 272,-8 Q172,-8 110,53.5 Q48,115 48,207 Q48,298 109.5,360.5 Q171,423 262,423 Q360,423 417,355.5 Q474,288 470,184 M119,237 L400,237 Q395,293 359.5,328.5 Q324,364 262,364 Q204,364 165.5,329.5 Q127,295 119,237"/> 
            <glyph glyph-name="f" unicode="&#x66;" horiz-adv-x="321" d=" M101,0 L101,355 L34,355 L34,414 L101,414 L101,602 Q101,669 132,702 Q163,735 216,735 Q286,735 321,684 L275,643 Q253,672 222,672 Q171,672 171,602 L171,414 L282,414 L282,355 L171,355 L171,0"/> 
            <glyph glyph-name="g" unicode="&#x67;" horiz-adv-x="477" d=" M268,-223 Q125,-223 58,-108 L110,-72 Q165,-163 266,-163 Q407,-163 407,-8 L407,86 Q386,44 344.5,18 Q303,-8 249,-8 Q164,-8 106,53.5 Q48,115 48,208 Q48,300 106,361.5 Q164,423 248,423 Q359,423 409,325 L407,414 L477,414 L477,-13 Q477,-119 421,-171 Q365,-223 268,-223 M263,53 Q329,53 369.5,96.5 Q410,140 410,208 Q410,275 369.5,318 Q329,361 263,361 Q198,361 159,318 Q120,275 120,208 Q120,140 159,96.5 Q198,53 263,53"/> 
            <glyph glyph-name="h" unicode="&#x68;" horiz-adv-x="446" d=" M74,0 L74,722 L144,722 L144,333 Q164,375 202.5,399 Q241,423 291,423 Q361,423 403.5,377.5 Q446,332 446,252 L446,0 L376,0 L376,244 Q376,359 273,359 Q215,359 179.5,324 Q144,289 144,228 L144,0"/> 
            <glyph glyph-name="i" unicode="&#x69;" horiz-adv-x="161" d=" M131,534 Q91,534 76,548 Q61,562 61,583 Q61,604 76,618.5 Q91,633 111,633 Q131,633 146,618.5 Q161,604 161,583 Q161,562 131,534 M76,0 L76,414 L146,414 L146,0"/> 
            <glyph glyph-name="j" unicode="&#x6A;" horiz-adv-x="161" d=" M131,534 Q91,534 76,548 Q61,562 61,583 Q61,604 76,618.5 Q91,633 111,633 Q131,633 146,618.5 Q161,604 161,583 Q161,562 131,534 M35,-222 Q-20,-222 -57,-181 L-18,-139 Q7,-162 30,-162 Q76,-162 76,-99 L76,414 L146,414 L146,-98 Q146,-158 116,-190 Q86,-222 35,-222"/> 
            <glyph glyph-name="k" unicode="&#x6B;" horiz-adv-x="442" d=" M144,126 L144,0 L74,0 L74,722 L144,722 L144,259 Q144,228 139,200 L336,414 L417,414 L258,240 L442,0 L359,0 L209,194"/> 
            <glyph glyph-name="l" unicode="&#x6C;" horiz-adv-x="149" d=" M79,0 L79,722 L149,722 L149,0"/> 
            <glyph glyph-name="m" unicode="&#x6D;" horiz-adv-x="687" d=" M74,0 L74,414 L144,414 L142,336 Q184,423 272,423 Q367,423 397,336 Q445,423 540,423 Q608,423 647.5,380.5 Q687,338 687,265 L687,0 L618,0 L618,256 Q618,359 527,359 Q476,359 446,325.5 Q416,292 416,232 L416,0 L346,0 L346,256 Q346,359 256,359 Q205,359 174.5,325.5 Q144,292 144,232 L144,0"/> 
            <glyph glyph-name="n" unicode="&#x6E;" horiz-adv-x="446" d=" M74,0 L74,414 L144,414 L142,329 Q162,373 201.5,398 Q241,423 291,423 Q361,423 403.5,377.5 Q446,332 446,252 L446,0 L376,0 L376,244 Q376,359 273,359 Q215,359 179.5,324 Q144,289 144,228 L144,0"/> 
            <glyph glyph-name="o" unicode="&#x6F;" horiz-adv-x="486" d=" M268,-8 Q175,-8 111.5,54 Q48,116 48,207 Q48,298 111.5,360.5 Q175,423 268,423 Q360,423 423,360.5 Q486,298 486,207 Q486,116 423,54 Q360,-8 268,-8 M268,52 Q333,52 374,96 Q415,140 415,207 Q415,274 374,318 Q333,362 268,362 Q202,362 160.5,318 Q119,274 119,207 Q119,140 160.5,96 Q202,52 268,52"/> 
            <glyph glyph-name="p" unicode="&#x70;" horiz-adv-x="503" d=" M75,-212 L75,414 L144,414 L142,325 Q192,423 303,423 Q388,423 445.5,361.5 Q503,300 503,208 Q503,115 445,53.5 Q387,-8 302,-8 Q248,-8 206.5,18 Q165,44 144,86 L144,-212 M288,53 Q353,53 392,96.5 Q431,140 431,208 Q431,275 392,318 Q353,361 288,361 Q222,361 181.5,318 Q141,275 141,208 Q141,140 181.5,96.5 Q222,53 288,53"/> 
            <glyph glyph-name="q" unicode="&#x71;" horiz-adv-x="477" d=" M407,-212 L407,86 Q386,44 344.5,18 Q303,-8 249,-8 Q164,-8 106,53.5 Q48,115 48,208 Q48,300 106,361.5 Q164,423 248,423 Q359,423 409,325 L407,414 L477,414 L477,-212 M263,53 Q329,53 369.5,96.5 Q410,140 410,208 Q410,275 369.5,318 Q329,361 263,361 Q198,361 159,318 Q120,275 120,208 Q120,140 159,96.5 Q198,53 263,53"/> 
            <glyph glyph-name="r" unicode="&#x72;" horiz-adv-x="335" d=" M74,0 L74,414 L144,414 L142,333 Q179,422 263,422 Q306,422 335,402 L308,341 Q285,357 251,357 Q204,357 174,322 Q144,287 144,218 L144,0"/> 
            <glyph glyph-name="s" unicode="&#x73;" horiz-adv-x="364" d=" M213,-8 Q149,-8 103.5,19 Q58,46 36,88 L90,119 Q132,49 210,49 Q252,49 275,65.5 Q298,82 298,111 Q298,142 275.5,155.5 Q253,169 190,187 Q130,204 97.5,230.5 Q65,257 65,310 Q65,362 103.5,392.5 Q142,423 201,423 Q292,423 339,356 L291,319 Q257,366 201,366 Q168,366 148.5,351.5 Q129,337 129,313 Q129,285 149,272 Q169,259 227,242 Q291,225 327.5,197 Q364,169 364,115 Q364,60 326,26 Q288,-8 213,-8"/> 
            <glyph glyph-name="t" unicode="&#x74;" horiz-adv-x="309" d=" M209,-9 Q158,-9 128,23 Q98,55 98,125 L98,355 L34,355 L34,414 L98,414 L98,556 L167,556 L167,414 L283,414 L283,355 L167,355 L167,124 Q167,52 216,52 Q249,52 275,78 L309,31 Q269,-9 209,-9"/> 
            <glyph glyph-name="u" unicode="&#x75;" horiz-adv-x="441" d=" M225,-9 Q155,-9 112.5,36.5 Q70,82 70,160 L70,414 L140,414 L140,167 Q140,55 242,55 Q301,55 336,90.5 Q371,126 371,186 L371,414 L441,414 L441,0 L371,0 L373,84 Q353,40 314,15.5 Q275,-9 225,-9"/> 
            <glyph glyph-name="v" unicode="&#x76;" horiz-adv-x="437" d=" M226,-8 L25,414 L102,414 L212,175 Q224,148 235,104 Q248,157 257,175 L365,414 L437,414 L239,-8"/> 
            <glyph glyph-name="w" unicode="&#x77;" horiz-adv-x="658" d=" M195,-9 L25,414 L101,414 L190,186 Q194,175 198.5,161 Q203,147 206,135.5 Q209,124 209,123 Q216,156 230,186 L338,420 L347,420 L457,187 Q470,157 479,122 Q479,142 498,187 L587,414 L658,414 L486,-9 L476,-9 L362,240 Q358,248 354,258.5 Q350,269 348,277.5 Q346,286 344,293 L342,300 L322,240 L205,-9"/> 
            <glyph glyph-name="x" unicode="&#x78;" horiz-adv-x="439" d=" M31,0 L195,220 L53,414 L136,414 L214,306 Q222,295 238,263 Q238,264 240.5,271 Q243,278 248,288.5 Q253,299 258,306 L337,414 L414,414 L274,225 L439,0 L355,0 L257,136 Q243,157 231,181 L227,173 Q223,165 217.5,154 Q212,143 207,136 L108,0"/> 
            <glyph glyph-name="y" unicode="&#x79;" horiz-adv-x="437" d=" M95,-212 L201,35 L25,414 L102,414 L219,157 Q224,145 228.5,127.5 Q233,110 236,98 L238,87 Q245,131 257,157 L365,414 L437,414 L167,-212"/> 
            <glyph glyph-name="z" unicode="&#x7A;" horiz-adv-x="384" d=" M32,0 L32,10 L271,356 L58,356 L58,414 L384,414 L384,403 L143,58 L379,58 L379,0"/> 
            <glyph glyph-name="{" unicode="&#x7B;" horiz-adv-x="331" d=" M274,-128 Q141,-128 141,16 L141,201 Q141,239 126.5,254.5 Q112,270 83,270 L25,270 L25,330 L83,330 Q112,330 126.5,346 Q141,362 141,400 L141,578 Q141,722 274,722 L331,722 L331,662 L278,662 Q245,662 228.5,643 Q212,624 212,577 L212,392 Q212,316 147,300 Q212,288 212,208 L212,17 Q212,-30 228.5,-49 Q245,-68 278,-68 L331,-68 L331,-128"/> 
            <glyph glyph-name="|" unicode="&#x7C;" horiz-adv-x="152" d=" M85,-128 L85,722 L152,722 L152,-128"/> 
            <glyph glyph-name="}" unicode="&#x7D;" horiz-adv-x="341" d=" M36,-128 L36,-68 L89,-68 Q122,-68 138.5,-49 Q155,-30 155,17 L155,208 Q155,286 220,300 Q155,312 155,393 L155,577 Q155,624 138.5,643 Q122,662 89,662 L36,662 L36,722 L93,722 Q225,722 225,578 L225,400 Q225,362 240,346 Q255,330 284,330 L341,330 L341,270 L284,270 Q255,270 240,254.5 Q225,239 225,201 L225,16 Q225,-128 93,-128"/> 
            <glyph glyph-name="~" unicode="&#x7E;" horiz-adv-x="342" d=" M103,224 L51,229 Q53,282 76.5,311 Q100,340 137,340 Q170,340 206,307 Q236,282 247,280 Q250,279 254,279 Q284,279 290,338 L342,333 Q340,280 317.5,251.5 Q295,223 257,223 Q224,223 188,256 Q167,273 159,278 Q151,283 139,283 Q109,283 103,224"/> 
            <glyph glyph-name="¡" unicode="&#xA1;" horiz-adv-x="175" d=" M101,687 Q143,687 159,671.5 Q175,656 175,634 Q175,611 159,595.5 Q143,580 122,580 Q101,580 85,595.5 Q69,611 69,634 Q69,656 101,687 M149,490 L161,0 L83,0 L95,490"/> 
            <glyph glyph-name="¢" unicode="&#xA2;" horiz-adv-x="432" d=" M233,-6 Q152,5 100,64.5 Q48,124 48,207 Q48,290 100.5,350 Q153,410 233,421 L233,529 L284,529 L284,422 Q372,416 427,349 L378,309 Q343,354 284,361 L284,53 Q345,60 384,107 L432,66 Q376,-1 284,-7 L284,-116 L233,-116 M233,359 Q181,349 150,307.5 Q119,266 119,207 Q119,148 149.5,106.5 Q180,65 233,55"/> 
            <glyph glyph-name="£" unicode="&#xA3;" horiz-adv-x="518" d=" M165,260 L70,260 L70,316 L141,316 Q110,394 110,447 Q110,520 162,569 Q214,618 299,618 Q365,618 412.5,587 Q460,556 483,507 L425,475 Q404,516 375,535.5 Q346,555 299,555 Q245,555 214,525.5 Q183,496 183,444 Q183,394 212,316 L374,316 L374,260 L233,260 Q264,171 264,112 L264,107 Q289,89 303,80 Q317,71 340,62.5 Q363,54 385,54 Q438,54 476,97 L518,54 Q468,-8 387,-8 Q319,-8 245,52 Q227,25 197,8.5 Q167,-8 132,-8 Q85,-8 56.5,17.5 Q28,43 28,83 Q28,122 55.5,146 Q83,170 126,170 Q161,170 202,148 Q195,190 165,260 M201,88 Q156,122 131,122 Q110,122 97.5,110.5 Q85,99 85,81 Q85,63 97.5,51.5 Q110,40 131,40 Q154,40 173.5,53.5 Q193,67 201,88"/> 
            <glyph glyph-name="¥" unicode="&#xA5;" horiz-adv-x="489" d=" M229,0 L229,128 L58,128 L58,184 L227,184 L188,253 L58,253 L58,309 L157,309 L47,504 L126,504 L240,292 Q247,279 254,262 Q261,245 264,234 L268,224 Q280,263 296,292 L416,504 L489,504 L374,309 L471,309 L471,253 L342,253 L301,184 L471,184 L471,128 L300,128 L300,0"/> 
            <glyph glyph-name="§" unicode="&#xA7;" horiz-adv-x="463" d=" M113,405 Q93,437 93,479 Q93,540 137.5,579 Q182,618 249,618 Q364,618 409,517 L352,491 Q318,560 251,560 Q210,560 185.5,539 Q161,518 161,481 Q161,449 177,429 Q193,409 232,393 L330,354 Q400,327 431.5,292 Q463,257 463,209 Q463,137 383,105 Q406,73 406,31 Q406,-30 363,-66.5 Q320,-103 243,-103 Q179,-103 130,-73 Q81,-43 59,5 L115,33 Q154,-44 241,-44 Q285,-44 310.5,-23.5 Q336,-3 336,31 Q336,60 317,78.5 Q298,97 254,114 L165,149 Q95,176 63.5,210 Q32,244 32,297 Q32,370 113,405 M349,138 Q397,159 397,200 Q397,231 378.5,251 Q360,271 310,291 L212,330 Q169,348 140,372 Q99,352 99,305 Q99,271 117.5,251 Q136,231 183,212 L274,177 Q321,159 349,138"/> 
            <glyph glyph-name="¨" unicode="&#xA8;" horiz-adv-x="381" d=" M353,537 Q317,537 303,550.5 Q289,564 289,583 Q289,602 303,615.5 Q317,629 335,629 Q353,629 367,615.5 Q381,602 381,583 Q381,564 353,537 M183,537 Q147,537 133,550.5 Q119,564 119,583 Q119,602 133,615.5 Q147,629 165,629 Q183,629 197,615.5 Q211,602 211,583 Q211,564 183,537"/> 
            <glyph glyph-name="©" unicode="&#xA9;" horiz-adv-x="559" d=" M300,-7 Q192,-7 115.5,67.5 Q39,142 39,252 Q39,363 115.5,437.5 Q192,512 300,512 Q407,512 483,437.5 Q559,363 559,252 Q559,142 483,67.5 Q407,-7 300,-7 M300,33 Q392,33 454.5,95 Q517,157 517,252 Q517,348 454.5,410 Q392,472 300,472 Q207,472 144,410 Q81,348 81,252 Q81,157 144,95 Q207,33 300,33 M303,103 Q240,103 197.5,145.5 Q155,188 155,252 Q155,316 197,359 Q239,402 301,402 Q368,402 416,351 L375,313 Q349,347 305,347 Q267,347 243,320 Q219,293 219,252 Q219,212 243,185 Q267,158 305,158 Q349,158 378,194 L419,156 Q373,103 303,103"/> 
            <glyph glyph-name="ª" unicode="&#xAA;" horiz-adv-x="349" d=" M284,363 Q284,416 263,437 Q242,458 202,458 Q142,458 101,408 L61,443 Q110,512 207,512 Q271,512 310,476 Q349,440 349,365 L349,154 L284,154 L285,200 Q247,146 171,146 Q113,146 76,174 Q39,202 39,255 Q39,307 78.5,335 Q118,363 178,363 M284,314 L185,314 Q104,314 104,257 Q104,198 186,198 Q228,198 256,218.5 Q284,239 284,274"/> 
            <glyph glyph-name="«" unicode="&#xAB;" horiz-adv-x="359" d=" M287,37 L193,196 L193,204 L287,361 L359,361 L263,200 L359,37 M132,37 L38,196 L38,204 L132,361 L204,361 L108,200 L204,37"/> 
            <glyph glyph-name="®" unicode="&#xAE;" horiz-adv-x="476" d=" M178,362 L178,599 L262,599 Q305,599 328.5,578.5 Q352,558 352,523 Q352,468 303,453 L358,362 L310,362 L260,447 L221,447 L221,362 M255,265 Q165,265 101.5,326.5 Q38,388 38,479 Q38,572 101,633 Q164,694 255,694 Q347,694 411.5,632.5 Q476,571 476,479 Q476,388 411.5,326.5 Q347,265 255,265 M255,300 Q335,300 385.5,349.5 Q436,399 436,479 Q436,560 385.5,609.5 Q335,659 255,659 Q178,659 128.5,609.5 Q79,560 79,479 Q79,399 128.5,349.5 Q178,300 255,300 M221,480 L262,480 Q308,480 308,522 Q308,562 262,562 L221,562"/> 
            <glyph glyph-name="¯" unicode="&#xAF;" horiz-adv-x="365" d=" M135,539 L135,594 L365,594 L365,539"/> 
            <glyph glyph-name="°" unicode="&#xB0;" horiz-adv-x="279" d=" M163,286 Q114,286 80,319 Q46,352 46,399 Q46,447 80,479.5 Q114,512 163,512 Q211,512 245,479.5 Q279,447 279,399 Q279,352 245,319 Q211,286 163,286 M163,332 Q191,332 209,351 Q227,370 227,399 Q227,428 209,447 Q191,466 163,466 Q134,466 116,447 Q98,428 98,399 Q98,370 116,351 Q134,332 163,332"/> 
            <glyph glyph-name="´" unicode="&#xB4;" horiz-adv-x="369" d=" M221,498 L289,691 L369,691 L276,498"/> 
            <glyph glyph-name="¶" unicode="&#xB6;" horiz-adv-x="485" d=" M266,0 L266,304 L244,304 Q155,304 103,357.5 Q51,411 51,491 Q51,571 104.5,625.5 Q158,680 248,680 L485,680 L485,0 L416,0 L416,618 L336,618 L336,0"/> 
            <glyph glyph-name="·" unicode="&#xB7;" horiz-adv-x="155" d=" M101,189 Q80,189 63.5,205 Q47,221 47,244 Q47,267 63,282.5 Q79,298 101,298 Q123,298 139,282.5 Q155,267 155,244 Q155,221 139,205 Q123,189 101,189"/> 
            <glyph glyph-name="¸" unicode="&#xB8;" horiz-adv-x="352" d=" M256,-232 Q184,-232 155,-173 L195,-148 Q215,-187 252,-187 Q272,-187 285.5,-174.5 Q299,-162 299,-140 Q299,-119 285,-105.5 Q271,-92 244,-92 L223,-92 L223,0 L269,0 L269,-53 Q304,-58 328,-82 Q352,-106 352,-144 Q352,-184 323.5,-208 Q295,-232 256,-232"/> 
            <glyph glyph-name="º" unicode="&#xBA;" horiz-adv-x="412" d=" M304,146 Q150,146 96,198.5 Q42,251 42,329 Q42,406 96,459 Q150,512 227,512 Q304,512 358,459 Q412,406 412,329 Q412,251 304,146 M174,201 Q280,201 313,237 Q346,273 346,329 Q346,385 313,420.5 Q280,456 227,456 Q174,456 141.5,420.5 Q109,385 109,329 Q109,272 174,201"/> 
            <glyph glyph-name="»" unicode="&#xBB;" horiz-adv-x="359" d=" M193,37 L289,199 L193,361 L265,361 L359,203 L359,195 L265,37 M38,37 L134,199 L38,361 L110,361 L204,203 L204,195 L110,37"/> 
            <glyph glyph-name="¿" unicode="&#xBF;" horiz-adv-x="442" d=" M242,687 Q284,687 300,671.5 Q316,656 316,634 Q316,611 300,595.5 Q284,580 263,580 Q242,580 226,595.5 Q210,611 210,634 Q210,656 242,687 M295,493 L295,317 L262,317 Q197,317 159.5,279 Q122,241 122,183 Q122,124 156.5,89.5 Q191,55 247,55 Q297,55 329,76 Q361,97 384,143 L442,113 Q417,54 366.5,23 Q316,-8 247,-8 Q159,-8 104.5,44.5 Q50,97 50,183 Q50,262 99.5,314 Q149,366 229,372 L229,493"/> 
            <glyph glyph-name="À" unicode="&#xC0;" horiz-adv-x="619" d=" M194,215 L456,215 L351,475 Q345,489 338.5,509 Q332,529 328.5,542 Q325,555 325,556 L321,542 Q317,529 310.5,509.5 Q304,490 298,476 M37,0 L319,687 L331,687 L619,0 L543,0 L481,153 L169,153 L108,0 M297,749 L204,942 L284,942 L352,749"/> 
            <glyph glyph-name="Á" unicode="&#xC1;" horiz-adv-x="619" d=" M194,215 L456,215 L351,475 Q345,489 338.5,509 Q332,529 328.5,542 Q325,555 325,556 L321,542 Q317,529 310.5,509.5 Q304,490 298,476 M37,0 L319,687 L331,687 L619,0 L543,0 L481,153 L169,153 L108,0 M298,749 L366,942 L446,942 L353,749"/> 
            <glyph glyph-name="Â" unicode="&#xC2;" horiz-adv-x="619" d=" M194,215 L456,215 L351,475 Q345,489 338.5,509 Q332,529 328.5,542 Q325,555 325,556 L321,542 Q317,529 310.5,509.5 Q304,490 298,476 M37,0 L319,687 L331,687 L619,0 L543,0 L481,153 L169,153 L108,0 M192,754 L320,947 L329,947 L457,754 L399,754 L325,855 L250,754"/> 
            <glyph glyph-name="Ã" unicode="&#xC3;" horiz-adv-x="619" d=" M217,759 L163,764 Q166,816 192,845.5 Q218,875 258,875 Q296,875 335,843 Q368,817 379,815 Q384,814 389,814 Q425,814 431,873 L485,868 Q482,814 457,786 Q432,758 390,758 Q353,758 314,790 Q291,808 281.5,813 Q272,818 259,818 Q223,818 217,759 M194,215 L456,215 L351,475 Q345,489 338.5,509 Q332,529 328.5,542 Q325,555 325,556 L321,542 Q317,529 310.5,509.5 Q304,490 298,476 M37,0 L319,687 L331,687 L619,0 L543,0 L481,153 L169,153 L108,0"/> 
            <glyph glyph-name="Ä" unicode="&#xC4;" horiz-adv-x="619" d=" M194,215 L456,215 L351,475 Q345,489 338.5,509 Q332,529 328.5,542 Q325,555 325,556 L321,542 Q317,529 310.5,509.5 Q304,490 298,476 M37,0 L319,687 L331,687 L619,0 L543,0 L481,153 L169,153 L108,0 M428,759 Q392,759 378,772.5 Q364,786 364,805 Q364,824 378,837.5 Q392,851 410,851 Q428,851 442,837.5 Q456,824 456,805 Q456,786 428,759 M258,759 Q222,759 208,772.5 Q194,786 194,805 Q194,824 208,837.5 Q222,851 240,851 Q258,851 272,837.5 Q286,824 286,805 Q286,786 258,759"/> 
            <glyph glyph-name="Å" unicode="&#xC5;" horiz-adv-x="619" d=" M194,215 L456,215 L351,475 Q345,489 338.5,509 Q332,529 328.5,542 Q325,555 325,556 L321,542 Q317,529 310.5,509.5 Q304,490 298,476 M37,0 L319,687 L331,687 L619,0 L543,0 L481,153 L169,153 L108,0 M369,742 Q281,742 250.5,771.5 Q220,801 220,842 Q220,884 250.5,913.5 Q281,943 325,943 Q369,943 399.5,913.5 Q430,884 430,842 Q430,801 369,742 M302,786 Q348,786 363,801.5 Q378,817 378,842 Q378,868 363.5,883 Q349,898 325,898 Q301,898 286.5,883 Q272,868 272,842 Q272,817 302,786"/> 
            <glyph glyph-name="Æ" unicode="&#xC6;" horiz-adv-x="894" d=" M27,0 L481,680 L880,680 L880,616 L539,616 L539,373 L843,373 L843,310 L539,310 L539,64 L894,64 L894,0 L466,0 L466,140 L196,140 L105,0 M239,202 L466,202 L466,486 Q466,496 466.5,508 Q467,520 468.5,530.5 Q470,541 471,549.5 Q472,558 472,564 L473,570 Q446,516 432,495"/> 
            <glyph glyph-name="Ç" unicode="&#xC7;" horiz-adv-x="683" d=" M384,-232 Q312,-232 282,-173 L323,-148 Q342,-187 380,-187 Q400,-187 413,-174.5 Q426,-162 426,-140 Q426,-119 412,-105.5 Q398,-92 371,-92 L350,-92 L350,-5 Q221,13 137.5,108 Q54,203 54,340 Q54,492 155,590 Q256,688 403,688 Q585,688 673,556 L618,516 Q546,623 403,623 Q284,623 206.5,542.5 Q129,462 129,340 Q129,218 206.5,137.5 Q284,57 403,57 Q548,57 627,171 L683,132 Q637,65 565,28.5 Q493,-8 403,-8 L397,-8 L397,-53 Q431,-58 455.5,-82 Q480,-106 480,-144 Q480,-184 451,-208 Q422,-232 384,-232"/> 
            <glyph glyph-name="È" unicode="&#xC8;" horiz-adv-x="521" d=" M93,0 L93,680 L507,680 L507,616 L165,616 L165,373 L470,373 L470,310 L165,310 L165,64 L521,64 L521,0 M280,749 L187,942 L267,942 L335,749"/> 
            <glyph glyph-name="É" unicode="&#xC9;" horiz-adv-x="521" d=" M280,749 L348,942 L428,942 L335,749 M93,0 L93,680 L507,680 L507,616 L165,616 L165,373 L470,373 L470,310 L165,310 L165,64 L521,64 L521,0"/> 
            <glyph glyph-name="Ê" unicode="&#xCA;" horiz-adv-x="521" d=" M172,754 L300,947 L309,947 L437,754 L379,754 L305,855 L230,754 M93,0 L93,680 L507,680 L507,616 L165,616 L165,373 L470,373 L470,310 L165,310 L165,64 L521,64 L521,0"/> 
            <glyph glyph-name="Ë" unicode="&#xCB;" horiz-adv-x="521" d=" M410,759 Q374,759 360,772.5 Q346,786 346,805 Q346,824 360,837.5 Q374,851 392,851 Q410,851 424,837.5 Q438,824 438,805 Q438,786 410,759 M240,759 Q204,759 190,772.5 Q176,786 176,805 Q176,824 190,837.5 Q204,851 222,851 Q240,851 254,837.5 Q268,824 268,805 Q268,786 240,759 M93,0 L93,680 L507,680 L507,616 L165,616 L165,373 L470,373 L470,310 L165,310 L165,64 L521,64 L521,0"/> 
            <glyph glyph-name="Ì" unicode="&#xCC;" horiz-adv-x="169" d=" M96,0 L96,680 L169,680 L169,0 M105,749 L12,942 L92,942 L160,749"/> 
            <glyph glyph-name="Í" unicode="&#xCD;" horiz-adv-x="254" d=" M96,0 L96,680 L169,680 L169,0 M106,749 L174,942 L254,942 L161,749"/> 
            <glyph glyph-name="Î" unicode="&#xCE;" horiz-adv-x="265" d=" M96,0 L96,680 L169,680 L169,0 M0,754 L128,947 L137,947 L265,754 L207,754 L133,855 L58,754"/> 
            <glyph glyph-name="Ï" unicode="&#xCF;" horiz-adv-x="264" d=" M96,0 L96,680 L169,680 L169,0 M236,759 Q200,759 186,772.5 Q172,786 172,805 Q172,824 186,837.5 Q200,851 218,851 Q236,851 250,837.5 Q264,824 264,805 Q264,786 236,759 M66,759 Q30,759 16,772.5 Q2,786 2,805 Q2,824 16,837.5 Q30,851 48,851 Q66,851 80,837.5 Q94,824 94,805 Q94,786 66,759"/> 
            <glyph glyph-name="Ð" unicode="&#xD0;" horiz-adv-x="626" d=" M93,0 L93,309 L14,309 L14,372 L93,372 L93,680 L266,680 Q430,680 528,586 Q626,492 626,340 Q626,188 528.5,94 Q431,0 266,0 M165,65 L261,65 Q402,65 476,139.5 Q550,214 550,340 Q550,466 476,540.5 Q402,615 261,615 L165,615 L165,372 L348,372 L348,309 L165,309"/> 
            <glyph glyph-name="Ñ" unicode="&#xD1;" horiz-adv-x="620" d=" M608,-7 L202,473 Q169,511 155,535 Q155,534 156.5,520 Q158,506 159.5,488.5 Q161,471 161,459 L161,0 L93,0 L93,687 L105,687 L511,207 Q517,199 525.5,188 Q534,177 540,168.5 Q546,160 552,152.5 Q558,145 558,144 L557,158 Q556,171 554.5,189.5 Q553,208 553,221 L553,680 L620,680 L620,-7 M254,759 L200,764 Q203,816 229,845.5 Q255,875 295,875 Q332,875 372,843 Q374,841 379.5,837 Q385,833 386.5,831.5 Q388,830 392,827 Q396,824 397.5,823 Q399,822 402,820 Q405,818 406.5,817.5 Q408,817 411,816 Q414,815 416,815 Q418,815 420.5,814.5 Q423,814 426,814 Q462,814 468,873 L522,868 Q519,814 494,786 Q469,758 427,758 Q390,758 350,790 Q327,808 318,813 Q309,818 296,818 Q260,818 254,759"/> 
            <glyph glyph-name="Ò" unicode="&#xD2;" horiz-adv-x="753" d=" M403,-8 Q256,-8 155,90 Q54,188 54,340 Q54,492 155,590 Q256,688 403,688 Q551,688 652,590 Q753,492 753,340 Q753,188 652,90 Q551,-8 403,-8 M403,57 Q522,57 600,137.5 Q678,218 678,340 Q678,462 600,542.5 Q522,623 403,623 Q285,623 207,542.5 Q129,462 129,340 Q129,218 207,137.5 Q285,57 403,57 M375,749 L282,942 L362,942 L430,749"/> 
            <glyph glyph-name="Ó" unicode="&#xD3;" horiz-adv-x="753" d=" M376,749 L444,942 L524,942 L431,749 M403,-8 Q256,-8 155,90 Q54,188 54,340 Q54,492 155,590 Q256,688 403,688 Q551,688 652,590 Q753,492 753,340 Q753,188 652,90 Q551,-8 403,-8 M403,57 Q522,57 600,137.5 Q678,218 678,340 Q678,462 600,542.5 Q522,623 403,623 Q285,623 207,542.5 Q129,462 129,340 Q129,218 207,137.5 Q285,57 403,57"/> 
            <glyph glyph-name="Ô" unicode="&#xD4;" horiz-adv-x="753" d=" M270,754 L398,947 L407,947 L535,754 L477,754 L403,855 L328,754 M403,-8 Q256,-8 155,90 Q54,188 54,340 Q54,492 155,590 Q256,688 403,688 Q551,688 652,590 Q753,492 753,340 Q753,188 652,90 Q551,-8 403,-8 M403,57 Q522,57 600,137.5 Q678,218 678,340 Q678,462 600,542.5 Q522,623 403,623 Q285,623 207,542.5 Q129,462 129,340 Q129,218 207,137.5 Q285,57 403,57"/> 
            <glyph glyph-name="Õ" unicode="&#xD5;" horiz-adv-x="753" d=" M296,759 L243,764 Q246,817 271.5,846 Q297,875 338,875 Q375,875 415,843 Q418,840 424,835.5 Q430,831 432.5,829 Q435,827 439,824 Q443,821 445,820 Q447,819 450.5,817.5 Q454,816 456.5,815.5 Q459,815 462,814.5 Q465,814 469,814 Q504,814 510,873 L564,868 Q561,814 536.5,786 Q512,758 470,758 Q433,758 393,790 Q370,808 361,813 Q352,818 339,818 Q302,818 296,759 M403,-8 Q256,-8 155,90 Q54,188 54,340 Q54,492 155,590 Q256,688 403,688 Q551,688 652,590 Q753,492 753,340 Q753,188 652,90 Q551,-8 403,-8 M403,57 Q522,57 600,137.5 Q678,218 678,340 Q678,462 600,542.5 Q522,623 403,623 Q285,623 207,542.5 Q129,462 129,340 Q129,218 207,137.5 Q285,57 403,57"/> 
            <glyph glyph-name="Ö" unicode="&#xD6;" horiz-adv-x="753" d=" M506,759 Q470,759 456,772.5 Q442,786 442,805 Q442,824 456,837.5 Q470,851 488,851 Q506,851 520,837.5 Q534,824 534,805 Q534,786 506,759 M336,759 Q300,759 286,772.5 Q272,786 272,805 Q272,824 286,837.5 Q300,851 318,851 Q336,851 350,837.5 Q364,824 364,805 Q364,786 336,759 M403,-8 Q256,-8 155,90 Q54,188 54,340 Q54,492 155,590 Q256,688 403,688 Q551,688 652,590 Q753,492 753,340 Q753,188 652,90 Q551,-8 403,-8 M403,57 Q522,57 600,137.5 Q678,218 678,340 Q678,462 600,542.5 Q522,623 403,623 Q285,623 207,542.5 Q129,462 129,340 Q129,218 207,137.5 Q285,57 403,57"/> 
            <glyph glyph-name="×" unicode="&#xD7;" horiz-adv-x="329" d=" M185,207 L85,107 L41,151 L141,251 L41,351 L85,395 L185,295 L285,395 L329,351 L229,251 L329,151 L285,107"/> 
            <glyph glyph-name="Ø" unicode="&#xD8;" horiz-adv-x="754" d=" M674,566 Q753,471 753,340 Q753,188 652,90 Q551,-8 403,-8 Q272,-8 177,70 L97,-10 L52,34 L133,114 Q54,209 54,340 Q54,492 155,590 Q256,688 403,688 Q534,688 630,609 L710,689 L754,645 M184,165 Q209,190 250,231 Q291,272 378,358.5 Q465,445 522,502 L580,560 Q508,623 403,623 Q285,623 207,542.5 Q129,462 129,340 Q129,240 184,165 M623,515 L227,119 Q302,57 403,57 Q522,57 600,137.5 Q678,218 678,340 Q678,440 623,515"/> 
            <glyph glyph-name="Ù" unicode="&#xD9;" horiz-adv-x="575" d=" M439,-8 Q223,-8 155,54.5 Q87,117 87,232 L87,680 L159,680 L159,237 Q159,148 204.5,102 Q250,56 331,56 Q412,56 457.5,102 Q503,148 503,237 L503,680 L575,680 L575,232 Q575,117 439,-8 M303,749 L210,942 L290,942 L358,749"/> 
            <glyph glyph-name="Ú" unicode="&#xDA;" horiz-adv-x="575" d=" M303,749 L371,942 L451,942 L358,749 M439,-8 Q223,-8 155,54.5 Q87,117 87,232 L87,680 L159,680 L159,237 Q159,148 204.5,102 Q250,56 331,56 Q412,56 457.5,102 Q503,148 503,237 L503,680 L575,680 L575,232 Q575,117 439,-8"/> 
            <glyph glyph-name="Û" unicode="&#xDB;" horiz-adv-x="575" d=" M198,754 L326,947 L335,947 L463,754 L405,754 L331,855 L256,754 M439,-8 Q223,-8 155,54.5 Q87,117 87,232 L87,680 L159,680 L159,237 Q159,148 204.5,102 Q250,56 331,56 Q412,56 457.5,102 Q503,148 503,237 L503,680 L575,680 L575,232 Q575,117 439,-8"/> 
            <glyph glyph-name="Ü" unicode="&#xDC;" horiz-adv-x="575" d=" M433,759 Q397,759 383,772.5 Q369,786 369,805 Q369,824 383,837.5 Q397,851 415,851 Q433,851 447,837.5 Q461,824 461,805 Q461,786 433,759 M263,759 Q227,759 213,772.5 Q199,786 199,805 Q199,824 213,837.5 Q227,851 245,851 Q263,851 277,837.5 Q291,824 291,805 Q291,786 263,759 M439,-8 Q223,-8 155,54.5 Q87,117 87,232 L87,680 L159,680 L159,237 Q159,148 204.5,102 Q250,56 331,56 Q412,56 457.5,102 Q503,148 503,237 L503,680 L575,680 L575,232 Q575,117 439,-8"/> 
            <glyph glyph-name="Ý" unicode="&#xDD;" horiz-adv-x="576" d=" M271,0 L271,250 L34,680 L116,680 L280,379 Q286,368 293,351.5 Q300,335 304.5,323 Q309,311 309,310 Q316,338 338,379 L501,680 L576,680 L345,252 L345,0 M281,749 L349,942 L429,942 L336,749"/> 
            <glyph glyph-name="Þ" unicode="&#xDE;" horiz-adv-x="534" d=" M93,0 L93,680 L165,680 L165,554 L292,554 Q404,554 469,500 Q534,446 534,343 Q534,242 469,187.5 Q404,133 292,133 L165,133 L165,0 M165,197 L288,197 Q460,197 460,343 Q460,490 288,490 L165,490"/> 
            <glyph glyph-name="ß" unicode="&#xDF;" horiz-adv-x="492" d=" M283,-5 Q239,-5 207,8 L222,65 Q243,56 276,56 Q346,56 383,97.5 Q420,139 420,210 Q420,285 373,326.5 Q326,368 240,367 L240,425 Q295,431 326,466 Q357,501 357,558 Q357,617 327.5,646.5 Q298,676 252,676 Q204,676 174,644.5 Q144,613 144,545 L144,0 L74,0 L74,546 Q74,639 125,687 Q176,735 252,735 Q326,735 374.5,689 Q423,643 423,560 Q423,447 327,406 Q402,391 447,339.5 Q492,288 492,209 Q492,114 436.5,54.5 Q381,-5 283,-5"/> 
            <glyph glyph-name="à" unicode="&#xE0;" horiz-adv-x="401" d=" M331,243 L331,253 Q331,364 234,364 Q158,364 113,304 L70,343 Q129,423 239,423 Q311,423 356,380 Q401,337 401,254 L401,0 L331,0 L334,62 Q287,-8 197,-8 Q128,-8 86.5,24 Q45,56 45,118 Q45,179 89,211 Q133,243 202,243 M331,190 L207,190 Q113,190 113,121 Q113,49 213,49 Q262,49 296.5,73.5 Q331,98 331,138 M205,498 L112,691 L192,691 L260,498"/> 
            <glyph glyph-name="á" unicode="&#xE1;" horiz-adv-x="401" d=" M331,243 L331,253 Q331,364 234,364 Q158,364 113,304 L70,343 Q129,423 239,423 Q311,423 356,380 Q401,337 401,254 L401,0 L331,0 L334,62 Q287,-8 197,-8 Q128,-8 86.5,24 Q45,56 45,118 Q45,179 89,211 Q133,243 202,243 M331,190 L207,190 Q113,190 113,121 Q113,49 213,49 Q262,49 296.5,73.5 Q331,98 331,138 M206,498 L274,691 L354,691 L261,498"/> 
            <glyph glyph-name="â" unicode="&#xE2;" horiz-adv-x="401" d=" M331,243 L331,253 Q331,364 234,364 Q158,364 113,304 L70,343 Q129,423 239,423 Q311,423 356,380 Q401,337 401,254 L401,0 L331,0 L334,62 Q287,-8 197,-8 Q128,-8 86.5,24 Q45,56 45,118 Q45,179 89,211 Q133,243 202,243 M331,190 L207,190 Q113,190 113,121 Q113,49 213,49 Q262,49 296.5,73.5 Q331,98 331,138 M101,503 L229,696 L238,696 L366,503 L308,503 L234,604 L159,503"/> 
            <glyph glyph-name="ã" unicode="&#xE3;" horiz-adv-x="401" d=" M331,243 L331,253 Q331,364 234,364 Q158,364 113,304 L70,343 Q129,423 239,423 Q311,423 356,380 Q401,337 401,254 L401,0 L331,0 L334,62 Q287,-8 197,-8 Q128,-8 86.5,24 Q45,56 45,118 Q45,179 89,211 Q133,243 202,243 M331,190 L207,190 Q113,190 113,121 Q113,49 213,49 Q262,49 296.5,73.5 Q331,98 331,138 M139,509 L87,513 Q90,566 113.5,595 Q137,624 174,624 Q206,624 243,592 Q263,574 271.5,569 Q280,564 291,564 Q321,564 327,622 L379,617 Q376,564 353.5,535.5 Q331,507 293,507 Q262,507 224,540 Q204,558 195.5,563 Q187,568 176,568 Q145,568 139,509"/> 
            <glyph glyph-name="ä" unicode="&#xE4;" horiz-adv-x="401" d=" M331,243 L331,253 Q331,364 234,364 Q158,364 113,304 L70,343 Q129,423 239,423 Q311,423 356,380 Q401,337 401,254 L401,0 L331,0 L334,62 Q287,-8 197,-8 Q128,-8 86.5,24 Q45,56 45,118 Q45,179 89,211 Q133,243 202,243 M331,190 L207,190 Q113,190 113,121 Q113,49 213,49 Q262,49 296.5,73.5 Q331,98 331,138 M336,537 Q300,537 286,550.5 Q272,564 272,583 Q272,602 286,615.5 Q300,629 318,629 Q336,629 350,615.5 Q364,602 364,583 Q364,564 336,537 M166,537 Q130,537 116,550.5 Q102,564 102,583 Q102,602 116,615.5 Q130,629 148,629 Q166,629 180,615.5 Q194,602 194,583 Q194,564 166,537"/> 
            <glyph glyph-name="å" unicode="&#xE5;" horiz-adv-x="401" d=" M331,243 L331,253 Q331,364 234,364 Q158,364 113,304 L70,343 Q129,423 239,423 Q311,423 356,380 Q401,337 401,254 L401,0 L331,0 L334,62 Q287,-8 197,-8 Q128,-8 86.5,24 Q45,56 45,118 Q45,179 89,211 Q133,243 202,243 M331,190 L207,190 Q113,190 113,121 Q113,49 213,49 Q262,49 296.5,73.5 Q331,98 331,138 M277,484 Q189,484 158.5,513.5 Q128,543 128,584 Q128,626 158.5,655.5 Q189,685 233,685 Q277,685 307.5,655.5 Q338,626 338,584 Q338,543 277,484 M210,528 Q256,528 271,543.5 Q286,559 286,584 Q286,610 271.5,625 Q257,640 233,640 Q209,640 194.5,625 Q180,610 180,584 Q180,559 210,528"/> 
            <glyph glyph-name="æ" unicode="&#xE6;" horiz-adv-x="753" d=" M331,240 L331,252 Q331,364 234,364 Q158,364 113,304 L70,343 Q129,423 239,423 Q343,423 376,329 Q403,371 447,397 Q491,423 544,423 Q642,423 699,356.5 Q756,290 753,188 L400,188 Q406,127 446.5,89 Q487,51 554,51 Q635,51 686,106 L728,64 Q664,-8 555,-8 Q429,-8 373,89 Q357,42 310.5,17 Q264,-8 206,-8 Q133,-8 89,23.5 Q45,55 45,117 Q45,178 89,209 Q133,240 202,240 M402,240 L682,240 Q677,293 642,328.5 Q607,364 545,364 Q488,364 449.5,329.5 Q411,295 402,240 M331,188 L207,188 Q113,188 113,120 Q113,49 213,49 Q262,49 296.5,73.5 Q331,98 331,138"/> 
            <glyph glyph-name="ç" unicode="&#xE7;" horiz-adv-x="430" d=" M217,-3 Q142,12 95,70.5 Q48,129 48,207 Q48,298 110,360.5 Q172,423 263,423 Q365,423 426,349 L376,308 Q336,361 263,361 Q198,361 159,317.5 Q120,274 120,207 Q120,140 159,96.5 Q198,53 263,53 Q337,53 382,107 L430,66 Q369,-8 265,-8 L265,-53 Q299,-58 323,-82 Q347,-106 347,-144 Q347,-184 318.5,-208 Q290,-232 251,-232 Q180,-232 150,-173 L193,-148 Q201,-161 206,-167.5 Q211,-174 221.5,-179.5 Q232,-185 247,-185 Q266,-185 279,-173 Q292,-161 292,-140 Q292,-119 278.5,-106 Q265,-93 239,-93 L217,-93"/> 
            <glyph glyph-name="è" unicode="&#xE8;" horiz-adv-x="470" d=" M118,184 Q125,123 165,87 Q205,51 272,51 Q354,51 403,106 L446,64 Q382,-8 272,-8 Q172,-8 110,53.5 Q48,115 48,207 Q48,298 109.5,360.5 Q171,423 262,423 Q360,423 417,355.5 Q474,288 470,184 M119,237 L400,237 Q395,293 359.5,328.5 Q324,364 262,364 Q204,364 165.5,329.5 Q127,295 119,237 M231,498 L138,691 L218,691 L286,498"/> 
            <glyph glyph-name="é" unicode="&#xE9;" horiz-adv-x="470" d=" M232,498 L300,691 L380,691 L287,498 M118,184 Q125,123 165,87 Q205,51 272,51 Q354,51 403,106 L446,64 Q382,-8 272,-8 Q172,-8 110,53.5 Q48,115 48,207 Q48,298 109.5,360.5 Q171,423 262,423 Q360,423 417,355.5 Q474,288 470,184 M119,237 L400,237 Q395,293 359.5,328.5 Q324,364 262,364 Q204,364 165.5,329.5 Q127,295 119,237"/> 
            <glyph glyph-name="ê" unicode="&#xEA;" horiz-adv-x="470" d=" M126,503 L254,696 L263,696 L391,503 L333,503 L259,604 L184,503 M118,184 Q125,123 165,87 Q205,51 272,51 Q354,51 403,106 L446,64 Q382,-8 272,-8 Q172,-8 110,53.5 Q48,115 48,207 Q48,298 109.5,360.5 Q171,423 262,423 Q360,423 417,355.5 Q474,288 470,184 M119,237 L400,237 Q395,293 359.5,328.5 Q324,364 262,364 Q204,364 165.5,329.5 Q127,295 119,237"/> 
            <glyph glyph-name="ë" unicode="&#xEB;" horiz-adv-x="470" d=" M362,537 Q326,537 312,550.5 Q298,564 298,583 Q298,602 312,615.5 Q326,629 344,629 Q362,629 376,615.5 Q390,602 390,583 Q390,564 362,537 M192,537 Q156,537 142,550.5 Q128,564 128,583 Q128,602 142,615.5 Q156,629 174,629 Q192,629 206,615.5 Q220,602 220,583 Q220,564 192,537 M118,184 Q125,123 165,87 Q205,51 272,51 Q354,51 403,106 L446,64 Q382,-8 272,-8 Q172,-8 110,53.5 Q48,115 48,207 Q48,298 109.5,360.5 Q171,423 262,423 Q360,423 417,355.5 Q474,288 470,184 M119,237 L400,237 Q395,293 359.5,328.5 Q324,364 262,364 Q204,364 165.5,329.5 Q127,295 119,237"/> 
            <glyph glyph-name="ì" unicode="&#xEC;" horiz-adv-x="146" d=" M76,0 L76,414 L146,414 L146,0 M83,498 L-10,691 L70,691 L138,498"/> 
            <glyph glyph-name="í" unicode="&#xED;" horiz-adv-x="232" d=" M84,498 L152,691 L232,691 L139,498 M76,0 L76,414 L146,414 L146,0"/> 
            <glyph glyph-name="î" unicode="&#xEE;" horiz-adv-x="244" d=" M-21,503 L107,696 L116,696 L244,503 L186,503 L112,604 L37,503 M76,0 L76,414 L146,414 L146,0"/> 
            <glyph glyph-name="ï" unicode="&#xEF;" horiz-adv-x="233" d=" M76,0 L76,414 L146,414 L146,0 M205,537 Q169,537 155,550.5 Q141,564 141,583 Q141,602 155,615.5 Q169,629 187,629 Q205,629 219,615.5 Q233,602 233,583 Q233,564 205,537 M53,537 Q17,537 3,550.5 Q-11,564 -11,583 Q-11,602 3,615.5 Q17,629 35,629 Q53,629 67,615.5 Q81,602 81,583 Q81,564 53,537"/> 
            <glyph glyph-name="ð" unicode="&#xF0;" horiz-adv-x="486" d=" M276,575 L209,510 L174,545 L244,613 Q204,659 160,695 L199,738 Q243,703 288,657 L355,723 L392,687 L322,620 Q486,429 486,227 Q486,124 423.5,58 Q361,-8 268,-8 Q175,-8 111.5,54 Q48,116 48,207 Q48,298 110.5,360.5 Q173,423 260,423 Q346,423 395,358 Q366,467 276,575 M268,52 Q333,52 374,97 Q415,142 415,211 Q415,277 374,319.5 Q333,362 268,362 Q202,362 160.5,318 Q119,274 119,207 Q119,140 160.5,96 Q202,52 268,52"/> 
            <glyph glyph-name="ñ" unicode="&#xF1;" horiz-adv-x="446" d=" M74,0 L74,414 L144,414 L142,329 Q162,373 201.5,398 Q241,423 291,423 Q361,423 403.5,377.5 Q446,332 446,252 L446,0 L376,0 L376,244 Q376,359 273,359 Q215,359 179.5,324 Q144,289 144,228 L144,0 M162,509 L110,513 Q113,566 136.5,595 Q160,624 197,624 Q229,624 266,592 Q286,574 294.5,569 Q303,564 314,564 Q344,564 350,622 L402,617 Q399,564 376.5,535.5 Q354,507 316,507 Q285,507 247,540 Q227,558 218.5,563 Q210,568 199,568 Q168,568 162,509"/> 
            <glyph glyph-name="ò" unicode="&#xF2;" horiz-adv-x="486" d=" M268,-8 Q175,-8 111.5,54 Q48,116 48,207 Q48,298 111.5,360.5 Q175,423 268,423 Q360,423 423,360.5 Q486,298 486,207 Q486,116 423,54 Q360,-8 268,-8 M268,52 Q333,52 374,96 Q415,140 415,207 Q415,274 374,318 Q333,362 268,362 Q202,362 160.5,318 Q119,274 119,207 Q119,140 160.5,96 Q202,52 268,52 M238,498 L145,691 L225,691 L293,498"/> 
            <glyph glyph-name="ó" unicode="&#xF3;" horiz-adv-x="486" d=" M239,498 L307,691 L387,691 L294,498 M268,-8 Q175,-8 111.5,54 Q48,116 48,207 Q48,298 111.5,360.5 Q175,423 268,423 Q360,423 423,360.5 Q486,298 486,207 Q486,116 423,54 Q360,-8 268,-8 M268,52 Q333,52 374,96 Q415,140 415,207 Q415,274 374,318 Q333,362 268,362 Q202,362 160.5,318 Q119,274 119,207 Q119,140 160.5,96 Q202,52 268,52"/> 
            <glyph glyph-name="ô" unicode="&#xF4;" horiz-adv-x="486" d=" M133,503 L261,696 L270,696 L398,503 L340,503 L266,604 L191,503 M268,-8 Q175,-8 111.5,54 Q48,116 48,207 Q48,298 111.5,360.5 Q175,423 268,423 Q360,423 423,360.5 Q486,298 486,207 Q486,116 423,54 Q360,-8 268,-8 M268,52 Q333,52 374,96 Q415,140 415,207 Q415,274 374,318 Q333,362 268,362 Q202,362 160.5,318 Q119,274 119,207 Q119,140 160.5,96 Q202,52 268,52"/> 
            <glyph glyph-name="õ" unicode="&#xF5;" horiz-adv-x="486" d=" M268,-8 Q175,-8 111.5,54 Q48,116 48,207 Q48,298 111.5,360.5 Q175,423 268,423 Q360,423 423,360.5 Q486,298 486,207 Q486,116 423,54 Q360,-8 268,-8 M268,52 Q333,52 374,96 Q415,140 415,207 Q415,274 374,318 Q333,362 268,362 Q202,362 160.5,318 Q119,274 119,207 Q119,140 160.5,96 Q202,52 268,52 M172,509 L120,513 Q123,566 146.5,595 Q170,624 207,624 Q239,624 276,592 Q296,574 304.5,569 Q313,564 324,564 Q354,564 360,622 L412,617 Q409,564 386.5,535.5 Q364,507 326,507 Q295,507 257,540 Q237,558 228.5,563 Q220,568 209,568 Q178,568 172,509"/> 
            <glyph glyph-name="ö" unicode="&#xF6;" horiz-adv-x="486" d=" M369,537 Q333,537 319,550.5 Q305,564 305,583 Q305,602 319,615.5 Q333,629 351,629 Q369,629 383,615.5 Q397,602 397,583 Q397,564 369,537 M199,537 Q163,537 149,550.5 Q135,564 135,583 Q135,602 149,615.5 Q163,629 181,629 Q199,629 213,615.5 Q227,602 227,583 Q227,564 199,537 M268,-8 Q175,-8 111.5,54 Q48,116 48,207 Q48,298 111.5,360.5 Q175,423 268,423 Q360,423 423,360.5 Q486,298 486,207 Q486,116 423,54 Q360,-8 268,-8 M268,52 Q333,52 374,96 Q415,140 415,207 Q415,274 374,318 Q333,362 268,362 Q202,362 160.5,318 Q119,274 119,207 Q119,140 160.5,96 Q202,52 268,52"/> 
            <glyph glyph-name="÷" unicode="&#xF7;" horiz-adv-x="334" d=" M334,221 L39,221 L39,283 L334,283 M207,343 Q165,343 150,358 Q135,373 135,395 Q135,417 150,431.5 Q165,446 186,446 Q207,446 222.5,431.5 Q238,417 238,395 Q238,373 207,343 M186,57 Q166,57 150.5,72.5 Q135,88 135,109 Q135,131 150,145.5 Q165,160 186,160 Q207,160 222.5,145.5 Q238,131 238,109 Q238,87 222.5,72 Q207,57 186,57"/> 
            <glyph glyph-name="ø" unicode="&#xF8;" horiz-adv-x="500" d=" M444,336 Q486,278 486,207 Q486,116 423,54 Q360,-8 268,-8 Q187,-8 126,42 L68,-12 L33,25 L91,78 Q48,135 48,207 Q48,298 111.5,360.5 Q175,423 268,423 Q348,423 408,373 L465,425 L500,388 M138,122 L363,330 Q324,363 268,363 Q201,363 159,319 Q117,275 117,207 Q117,162 138,122 M396,291 L171,84 Q212,51 268,51 Q334,51 375.5,95 Q417,139 417,207 Q417,256 396,291"/> 
            <glyph glyph-name="ù" unicode="&#xF9;" horiz-adv-x="441" d=" M225,-9 Q155,-9 112.5,36.5 Q70,82 70,160 L70,414 L140,414 L140,167 Q140,55 242,55 Q301,55 336,90.5 Q371,126 371,186 L371,414 L441,414 L441,0 L371,0 L373,84 Q353,40 314,15.5 Q275,-9 225,-9 M228,498 L135,691 L215,691 L283,498"/> 
            <glyph glyph-name="ú" unicode="&#xFA;" horiz-adv-x="441" d=" M228,498 L296,691 L376,691 L283,498 M225,-9 Q155,-9 112.5,36.5 Q70,82 70,160 L70,414 L140,414 L140,167 Q140,55 242,55 Q301,55 336,90.5 Q371,126 371,186 L371,414 L441,414 L441,0 L371,0 L373,84 Q353,40 314,15.5 Q275,-9 225,-9"/> 
            <glyph glyph-name="û" unicode="&#xFB;" horiz-adv-x="441" d=" M123,503 L251,696 L260,696 L388,503 L330,503 L256,604 L181,503 M225,-9 Q155,-9 112.5,36.5 Q70,82 70,160 L70,414 L140,414 L140,167 Q140,55 242,55 Q301,55 336,90.5 Q371,126 371,186 L371,414 L441,414 L441,0 L371,0 L373,84 Q353,40 314,15.5 Q275,-9 225,-9"/> 
            <glyph glyph-name="ü" unicode="&#xFC;" horiz-adv-x="441" d=" M359,537 Q323,537 309,550.5 Q295,564 295,583 Q295,602 309,615.5 Q323,629 341,629 Q359,629 373,615.5 Q387,602 387,583 Q387,564 359,537 M189,537 Q153,537 139,550.5 Q125,564 125,583 Q125,602 139,615.5 Q153,629 171,629 Q189,629 203,615.5 Q217,602 217,583 Q217,564 189,537 M225,-9 Q155,-9 112.5,36.5 Q70,82 70,160 L70,414 L140,414 L140,167 Q140,55 242,55 Q301,55 336,90.5 Q371,126 371,186 L371,414 L441,414 L441,0 L371,0 L373,84 Q353,40 314,15.5 Q275,-9 225,-9"/> 
            <glyph glyph-name="ý" unicode="&#xFD;" horiz-adv-x="437" d=" M95,-212 L201,35 L25,414 L102,414 L219,157 Q223,146 238,88 Q245,131 257,157 L365,414 L437,414 L167,-212 M211,498 L279,691 L359,691 L266,498"/> 
            <glyph glyph-name="þ" unicode="&#xFE;" horiz-adv-x="504" d=" M76,-212 L76,722 L146,722 L146,329 Q196,423 306,423 Q391,423 447.5,361.5 Q504,300 504,208 Q504,115 447,53.5 Q390,-8 305,-8 Q251,-8 209,18 Q167,44 146,86 L146,-212 M289,53 Q354,53 393,96.5 Q432,140 432,208 Q432,275 393,318 Q354,361 289,361 Q223,361 182.5,318 Q142,275 142,208 Q142,140 182.5,96.5 Q223,53 289,53"/> 
            <glyph glyph-name="ÿ" unicode="&#xFF;" horiz-adv-x="437" d=" M95,-212 L201,35 L25,414 L102,414 L219,157 Q223,146 238,88 Q245,131 257,157 L365,414 L437,414 L167,-212 M171,537 Q135,537 121,550.5 Q107,564 107,583 Q107,602 121,615.5 Q135,629 153,629 Q171,629 185,615.5 Q199,602 199,583 Q199,564 171,537 M341,537 Q305,537 291,550.5 Q277,564 277,583 Q277,602 291,615.5 Q305,629 323,629 Q341,629 355,615.5 Q369,602 369,583 Q369,564 341,537"/> 
            <glyph glyph-name="Ā" unicode="&#x100;" horiz-adv-x="619" d=" M194,215 L456,215 L351,475 Q345,489 338.5,509 Q332,529 328.5,542 Q325,555 325,556 L321,542 Q317,529 310.5,509.5 Q304,490 298,476 M37,0 L319,687 L331,687 L619,0 L543,0 L481,153 L169,153 L108,0 M210,768 L210,823 L440,823 L440,768"/> 
            <glyph glyph-name="ā" unicode="&#x101;" horiz-adv-x="401" d=" M331,243 L331,253 Q331,364 234,364 Q158,364 113,304 L70,343 Q129,423 239,423 Q311,423 356,380 Q401,337 401,254 L401,0 L331,0 L334,62 Q287,-8 197,-8 Q128,-8 86.5,24 Q45,56 45,118 Q45,179 89,211 Q133,243 202,243 M331,190 L207,190 Q113,190 113,121 Q113,49 213,49 Q262,49 296.5,73.5 Q331,98 331,138 M118,539 L118,594 L348,594 L348,539"/> 
            <glyph glyph-name="Ă" unicode="&#x102;" horiz-adv-x="619" d=" M194,215 L456,215 L351,475 Q345,489 338.5,509 Q332,529 328.5,542 Q325,555 325,556 L321,542 Q317,529 310.5,509.5 Q304,490 298,476 M37,0 L319,687 L331,687 L619,0 L543,0 L481,153 L169,153 L108,0 M381,750 Q269,750 235.5,782 Q202,814 194,867 L250,876 Q266,805 325,805 Q384,805 400,876 L456,867 Q448,814 381,750"/> 
            <glyph glyph-name="ă" unicode="&#x103;" horiz-adv-x="401" d=" M331,243 L331,253 Q331,364 234,364 Q158,364 113,304 L70,343 Q129,423 239,423 Q311,423 356,380 Q401,337 401,254 L401,0 L331,0 L334,62 Q287,-8 197,-8 Q128,-8 86.5,24 Q45,56 45,118 Q45,179 89,211 Q133,243 202,243 M331,190 L207,190 Q113,190 113,121 Q113,49 213,49 Q262,49 296.5,73.5 Q331,98 331,138 M289,499 Q177,499 143.5,531 Q110,563 102,616 L158,625 Q174,554 233,554 Q292,554 308,625 L364,616 Q356,563 289,499"/> 
            <glyph glyph-name="Ą" unicode="&#x104;" horiz-adv-x="680" d=" M582,-232 Q543,-232 516,-209 Q489,-186 489,-144 Q489,-104 531,-43 L549,-17 L481,153 L169,153 L108,0 L37,0 L319,687 L331,687 L616,5 L578,-57 Q563,-81 558.5,-89.5 Q554,-98 549,-112.5 Q544,-127 544,-142 Q544,-163 556,-174 Q568,-185 586,-185 Q616,-185 639,-149 L680,-173 Q650,-232 582,-232 M193,215 L456,215 L351,475 Q345,489 338.5,509 Q332,529 328.5,542 Q325,555 325,556 L321,542 Q317,529 310.5,509.5 Q304,490 298,476"/> 
            <glyph glyph-name="ą" unicode="&#x105;" horiz-adv-x="459" d=" M401,15 L356,-59 Q325,-109 325,-142 Q325,-162 336,-172.5 Q347,-183 364,-183 Q394,-183 415,-148 L459,-173 Q429,-232 361,-232 Q322,-232 295,-209 Q268,-186 268,-144 Q268,-98 309,-43 L330,-15 L334,62 Q287,-8 197,-8 Q128,-8 86.5,24 Q45,56 45,118 Q45,179 89,211 Q133,243 202,243 L331,243 L331,253 Q331,364 234,364 Q158,364 113,304 L70,343 Q129,423 239,423 Q311,423 356,380 Q401,337 401,254 M331,190 L207,190 Q113,190 113,121 Q113,49 213,49 Q262,49 296.5,73.5 Q331,98 331,138"/> 
            <glyph glyph-name="Ć" unicode="&#x106;" horiz-adv-x="683" d=" M363,749 L431,942 L511,942 L418,749 M403,-8 Q256,-8 155,90 Q54,188 54,340 Q54,492 155,590 Q256,688 403,688 Q585,688 673,556 L618,516 Q546,623 403,623 Q284,623 206.5,542.5 Q129,462 129,340 Q129,218 206.5,137.5 Q284,57 403,57 Q548,57 627,171 L683,132 Q637,65 565,28.5 Q493,-8 403,-8"/> 
            <glyph glyph-name="ć" unicode="&#x107;" horiz-adv-x="430" d=" M226,498 L294,691 L374,691 L281,498 M263,-8 Q172,-8 110,54 Q48,116 48,207 Q48,298 110,360.5 Q172,423 263,423 Q365,423 426,349 L376,308 Q336,361 263,361 Q198,361 159,317.5 Q120,274 120,207 Q120,140 159,96.5 Q198,53 263,53 Q337,53 382,107 L430,66 Q369,-8 263,-8"/> 
            <glyph glyph-name="Ĉ" unicode="&#x108;" horiz-adv-x="683" d=" M257,754 L385,947 L394,947 L522,754 L464,754 L390,855 L315,754 M403,-8 Q256,-8 155,90 Q54,188 54,340 Q54,492 155,590 Q256,688 403,688 Q585,688 673,556 L618,516 Q546,623 403,623 Q284,623 206.5,542.5 Q129,462 129,340 Q129,218 206.5,137.5 Q284,57 403,57 Q548,57 627,171 L683,132 Q637,65 565,28.5 Q493,-8 403,-8"/> 
            <glyph glyph-name="ĉ" unicode="&#x109;" horiz-adv-x="430" d=" M121,503 L249,696 L258,696 L386,503 L328,503 L254,604 L179,503 M263,-8 Q172,-8 110,54 Q48,116 48,207 Q48,298 110,360.5 Q172,423 263,423 Q365,423 426,349 L376,308 Q336,361 263,361 Q198,361 159,317.5 Q120,274 120,207 Q120,140 159,96.5 Q198,53 263,53 Q337,53 382,107 L430,66 Q369,-8 263,-8"/> 
            <glyph glyph-name="Ċ" unicode="&#x10A;" horiz-adv-x="683" d=" M403,-8 Q256,-8 155,90 Q54,188 54,340 Q54,492 155,590 Q256,688 403,688 Q585,688 673,556 L618,516 Q546,623 403,623 Q284,623 206.5,542.5 Q129,462 129,340 Q129,218 206.5,137.5 Q284,57 403,57 Q548,57 627,171 L683,132 Q637,65 565,28.5 Q493,-8 403,-8 M410,756 Q370,756 355,770 Q340,784 340,805 Q340,826 355,840.5 Q370,855 390,855 Q410,855 425,840.5 Q440,826 440,805 Q440,784 410,756"/> 
            <glyph glyph-name="ċ" unicode="&#x10B;" horiz-adv-x="430" d=" M263,-8 Q172,-8 110,54 Q48,116 48,207 Q48,298 110,360.5 Q172,423 263,423 Q365,423 426,349 L376,308 Q336,361 263,361 Q198,361 159,317.5 Q120,274 120,207 Q120,140 159,96.5 Q198,53 263,53 Q337,53 382,107 L430,66 Q369,-8 263,-8 M274,534 Q234,534 219,548 Q204,562 204,583 Q204,604 219,618.5 Q234,633 254,633 Q274,633 289,618.5 Q304,604 304,583 Q304,562 274,534"/> 
            <glyph glyph-name="Č" unicode="&#x10C;" horiz-adv-x="683" d=" M385,740 L257,932 L315,932 L389,831 L464,932 L522,932 L394,740 M403,-8 Q256,-8 155,90 Q54,188 54,340 Q54,492 155,590 Q256,688 403,688 Q585,688 673,556 L618,516 Q546,623 403,623 Q284,623 206.5,542.5 Q129,462 129,340 Q129,218 206.5,137.5 Q284,57 403,57 Q548,57 627,171 L683,132 Q637,65 565,28.5 Q493,-8 403,-8"/> 
            <glyph glyph-name="č" unicode="&#x10D;" horiz-adv-x="430" d=" M249,495 L121,687 L179,687 L253,586 L328,687 L386,687 L258,495 M263,-8 Q172,-8 110,54 Q48,116 48,207 Q48,298 110,360.5 Q172,423 263,423 Q365,423 426,349 L376,308 Q336,361 263,361 Q198,361 159,317.5 Q120,274 120,207 Q120,140 159,96.5 Q198,53 263,53 Q337,53 382,107 L430,66 Q369,-8 263,-8"/> 
            <glyph glyph-name="Ď" unicode="&#x10E;" horiz-adv-x="626" d=" M302,740 L174,932 L232,932 L306,831 L381,932 L439,932 L311,740 M93,0 L93,680 L258,680 Q428,680 527,587.5 Q626,495 626,340 Q626,185 527,92.5 Q428,0 258,0 M165,65 L253,65 Q399,65 474.5,139.5 Q550,214 550,340 Q550,466 474.5,540.5 Q399,615 253,615 L165,615"/> 
            <glyph glyph-name="ď" unicode="&#x10F;" horiz-adv-x="655" d=" M549,482 L583,586 Q569,591 559.5,604 Q550,617 550,634 Q550,656 565.5,671.5 Q581,687 602,687 Q623,687 639,671.5 Q655,656 655,635 Q655,622 642,594 L586,482 M249,-8 Q164,-8 106,53.5 Q48,115 48,208 Q48,300 106,361.5 Q164,423 248,423 Q356,423 407,329 L407,722 L476,722 L476,0 L407,0 L409,89 Q387,45 345,18.5 Q303,-8 249,-8 M263,53 Q329,53 369.5,96.5 Q410,140 410,208 Q410,275 369.5,318 Q329,361 263,361 Q198,361 159,318 Q120,275 120,208 Q120,140 159,96.5 Q198,53 263,53"/> 
            <glyph glyph-name="Đ" unicode="&#x110;" horiz-adv-x="626" d=" M93,0 L93,309 L14,309 L14,372 L93,372 L93,680 L266,680 Q430,680 528,586 Q626,492 626,340 Q626,188 528.5,94 Q431,0 266,0 M165,65 L261,65 Q402,65 476,139.5 Q550,214 550,340 Q550,466 476,540.5 Q402,615 261,615 L165,615 L165,372 L348,372 L348,309 L165,309"/> 
            <glyph glyph-name="đ" unicode="&#x111;" horiz-adv-x="553" d=" M407,527 L263,527 L263,586 L407,586 L407,722 L476,722 L476,586 L553,586 L553,527 L476,527 L476,0 L407,0 L409,89 Q387,45 344,18.5 Q301,-8 247,-8 Q162,-8 105,53.5 Q48,115 48,208 Q48,300 105,361.5 Q162,423 246,423 Q356,423 407,329 M263,53 Q329,53 369.5,96.5 Q410,140 410,208 Q410,275 369.5,318 Q329,361 263,361 Q198,361 159,318 Q120,275 120,208 Q120,140 159,96.5 Q198,53 263,53"/> 
            <glyph glyph-name="Ē" unicode="&#x112;" horiz-adv-x="521" d=" M93,0 L93,680 L507,680 L507,616 L165,616 L165,373 L470,373 L470,310 L165,310 L165,64 L521,64 L521,0 M193,768 L193,823 L423,823 L423,768"/> 
            <glyph glyph-name="ē" unicode="&#x113;" horiz-adv-x="470" d=" M118,184 Q125,123 165,87 Q205,51 272,51 Q354,51 403,106 L446,64 Q382,-8 272,-8 Q172,-8 110,53.5 Q48,115 48,207 Q48,298 109.5,360.5 Q171,423 262,423 Q360,423 417,355.5 Q474,288 470,184 M119,237 L400,237 Q395,293 359.5,328.5 Q324,364 262,364 Q204,364 165.5,329.5 Q127,295 119,237 M144,539 L144,594 L374,594 L374,539"/> 
            <glyph glyph-name="Ė" unicode="&#x116;" horiz-adv-x="521" d=" M93,0 L93,680 L507,680 L507,616 L165,616 L165,373 L470,373 L470,310 L165,310 L165,64 L521,64 L521,0 M328,756 Q288,756 273,770 Q258,784 258,805 Q258,826 273,840.5 Q288,855 308,855 Q328,855 343,840.5 Q358,826 358,805 Q358,784 328,756"/> 
            <glyph glyph-name="ė" unicode="&#x117;" horiz-adv-x="470" d=" M118,184 Q125,123 165,87 Q205,51 272,51 Q354,51 403,106 L446,64 Q382,-8 272,-8 Q172,-8 110,53.5 Q48,115 48,207 Q48,298 109.5,360.5 Q171,423 262,423 Q360,423 417,355.5 Q474,288 470,184 M119,237 L400,237 Q395,293 359.5,328.5 Q324,364 262,364 Q204,364 165.5,329.5 Q127,295 119,237 M279,534 Q239,534 224,548 Q209,562 209,583 Q209,604 224,618.5 Q239,633 259,633 Q279,633 294,618.5 Q309,604 309,583 Q309,562 279,534"/> 
            <glyph glyph-name="Ę" unicode="&#x118;" horiz-adv-x="529" d=" M431,-232 Q392,-232 365.5,-209 Q339,-186 339,-144 Q339,-98 380,-43 L412,0 L93,0 L93,680 L507,680 L507,616 L165,616 L165,373 L470,373 L470,310 L165,310 L165,64 L521,64 L521,0 L463,0 L427,-57 Q407,-88 400,-104.5 Q393,-121 393,-142 Q393,-163 405,-174 Q417,-185 435,-185 Q465,-185 488,-149 L529,-173 Q499,-232 431,-232"/> 
            <glyph glyph-name="ę" unicode="&#x119;" horiz-adv-x="470" d=" M337,-232 Q297,-232 269.5,-209 Q242,-186 242,-144 Q242,-97 291,-35 L315,-4 Q296,-8 272,-8 Q172,-8 110,53.5 Q48,115 48,207 Q48,298 109.5,360.5 Q171,423 262,423 Q360,423 417,355.5 Q474,288 470,184 L119,184 Q124,125 164.5,88 Q205,51 272,51 Q354,51 403,106 L446,64 Q441,58 398.5,19 Q356,-20 332,-57 Q312,-88 305,-104.5 Q298,-121 298,-142 Q298,-163 310.5,-174 Q323,-185 341,-185 Q370,-185 393,-149 L435,-173 Q405,-232 337,-232 M119,237 L400,237 Q395,293 359.5,328.5 Q324,364 262,364 Q203,364 165,329 Q127,294 119,237"/> 
            <glyph glyph-name="Ě" unicode="&#x11A;" horiz-adv-x="521" d=" M303,740 L175,932 L233,932 L307,831 L382,932 L440,932 L312,740 M93,0 L93,680 L507,680 L507,616 L165,616 L165,373 L470,373 L470,310 L165,310 L165,64 L521,64 L521,0"/> 
            <glyph glyph-name="ě" unicode="&#x11B;" horiz-adv-x="470" d=" M254,495 L126,687 L184,687 L258,586 L333,687 L391,687 L263,495 M118,184 Q125,123 165,87 Q205,51 272,51 Q354,51 403,106 L446,64 Q382,-8 272,-8 Q172,-8 110,53.5 Q48,115 48,207 Q48,298 109.5,360.5 Q171,423 262,423 Q360,423 417,355.5 Q474,288 470,184 M119,237 L400,237 Q395,293 359.5,328.5 Q324,364 262,364 Q204,364 165.5,329.5 Q127,295 119,237"/> 
            <glyph glyph-name="Ĝ" unicode="&#x11C;" horiz-adv-x="679" d=" M249,754 L377,947 L386,947 L514,754 L456,754 L382,855 L307,754 M410,-8 Q257,-8 155.5,89.5 Q54,187 54,340 Q54,492 154,590 Q254,688 404,688 Q559,688 641,600 L592,551 Q523,623 404,623 Q284,623 206.5,542.5 Q129,462 129,340 Q129,218 208,137.5 Q287,57 410,57 Q534,57 611,119 L611,262 L409,262 L409,326 L679,326 L679,86 Q583,-8 410,-8"/> 
            <glyph glyph-name="ĝ" unicode="&#x11D;" horiz-adv-x="477" d=" M138,503 L266,696 L275,696 L403,503 L345,503 L271,604 L196,503 M268,-223 Q125,-223 58,-108 L110,-72 Q165,-163 266,-163 Q407,-163 407,-8 L407,86 Q386,44 344.5,18 Q303,-8 249,-8 Q164,-8 106,53.5 Q48,115 48,208 Q48,300 106,361.5 Q164,423 248,423 Q359,423 409,325 L407,414 L477,414 L477,-13 Q477,-119 421,-171 Q365,-223 268,-223 M263,53 Q329,53 369.5,96.5 Q410,140 410,208 Q410,275 369.5,318 Q329,361 263,361 Q198,361 159,318 Q120,275 120,208 Q120,140 159,96.5 Q198,53 263,53"/> 
            <glyph glyph-name="Ğ" unicode="&#x11E;" horiz-adv-x="679" d=" M410,-8 Q257,-8 155.5,89.5 Q54,187 54,340 Q54,492 154,590 Q254,688 404,688 Q559,688 641,600 L592,551 Q523,623 404,623 Q284,623 206.5,542.5 Q129,462 129,340 Q129,218 208,137.5 Q287,57 410,57 Q534,57 611,119 L611,262 L409,262 L409,326 L679,326 L679,86 Q583,-8 410,-8 M437,750 Q325,750 291.5,782 Q258,814 250,867 L306,876 Q322,805 381,805 Q440,805 456,876 L512,867 Q504,814 437,750"/> 
            <glyph glyph-name="ğ" unicode="&#x11F;" horiz-adv-x="477" d=" M268,-223 Q125,-223 58,-108 L110,-72 Q165,-163 266,-163 Q407,-163 407,-8 L407,86 Q386,44 344.5,18 Q303,-8 249,-8 Q164,-8 106,53.5 Q48,115 48,208 Q48,300 106,361.5 Q164,423 248,423 Q359,423 409,325 L407,414 L477,414 L477,-13 Q477,-119 421,-171 Q365,-223 268,-223 M263,53 Q329,53 369.5,96.5 Q410,140 410,208 Q410,275 369.5,318 Q329,361 263,361 Q198,361 159,318 Q120,275 120,208 Q120,140 159,96.5 Q198,53 263,53 M326,499 Q214,499 180.5,531 Q147,563 139,616 L195,625 Q211,554 270,554 Q329,554 345,625 L401,616 Q393,563 326,499"/> 
            <glyph glyph-name="Ġ" unicode="&#x120;" horiz-adv-x="679" d=" M410,-8 Q257,-8 155.5,89.5 Q54,187 54,340 Q54,492 154,590 Q254,688 404,688 Q559,688 641,600 L592,551 Q523,623 404,623 Q284,623 206.5,542.5 Q129,462 129,340 Q129,218 208,137.5 Q287,57 410,57 Q534,57 611,119 L611,262 L409,262 L409,326 L679,326 L679,86 Q583,-8 410,-8 M402,756 Q362,756 347,770 Q332,784 332,805 Q332,826 347,840.5 Q362,855 382,855 Q402,855 417,840.5 Q432,826 432,805 Q432,784 402,756"/> 
            <glyph glyph-name="ġ" unicode="&#x121;" horiz-adv-x="477" d=" M268,-223 Q125,-223 58,-108 L110,-72 Q165,-163 266,-163 Q407,-163 407,-8 L407,86 Q386,44 344.5,18 Q303,-8 249,-8 Q164,-8 106,53.5 Q48,115 48,208 Q48,300 106,361.5 Q164,423 248,423 Q359,423 409,325 L407,414 L477,414 L477,-13 Q477,-119 421,-171 Q365,-223 268,-223 M263,53 Q329,53 369.5,96.5 Q410,140 410,208 Q410,275 369.5,318 Q329,361 263,361 Q198,361 159,318 Q120,275 120,208 Q120,140 159,96.5 Q198,53 263,53 M291,534 Q251,534 236,548 Q221,562 221,583 Q221,604 236,618.5 Q251,633 271,633 Q291,633 306,618.5 Q321,604 321,583 Q321,562 291,534"/> 
            <glyph glyph-name="Ģ" unicode="&#x122;" horiz-adv-x="679" d=" M332,-256 L364,-157 Q351,-152 341.5,-139.5 Q332,-127 332,-110 Q332,-89 347.5,-74 Q363,-59 383,-59 Q404,-59 419.5,-74 Q435,-89 435,-110 Q435,-127 423,-149 L370,-256 M410,-8 Q257,-8 155.5,89.5 Q54,187 54,340 Q54,492 154,590 Q254,688 404,688 Q559,688 641,600 L592,551 Q523,623 404,623 Q284,623 206.5,542.5 Q129,462 129,340 Q129,218 208,137.5 Q287,57 410,57 Q534,57 611,119 L611,262 L409,262 L409,326 L679,326 L679,86 Q583,-8 410,-8"/> 
            <glyph glyph-name="ģ" unicode="&#x123;" horiz-adv-x="477" d=" M321,723 L289,624 Q302,619 311.5,606.5 Q321,594 321,577 Q321,556 305.5,541 Q290,526 270,526 Q249,526 233.5,541 Q218,556 218,577 Q218,594 230,616 L283,723 M268,-223 Q125,-223 58,-108 L110,-72 Q165,-163 266,-163 Q407,-163 407,-8 L407,86 Q386,44 344.5,18 Q303,-8 249,-8 Q164,-8 106,53.5 Q48,115 48,208 Q48,300 106,361.5 Q164,423 248,423 Q359,423 409,325 L407,414 L477,414 L477,-13 Q477,-119 421,-171 Q365,-223 268,-223 M263,53 Q329,53 369.5,96.5 Q410,140 410,208 Q410,275 369.5,318 Q329,361 263,361 Q198,361 159,318 Q120,275 120,208 Q120,140 159,96.5 Q198,53 263,53"/> 
            <glyph glyph-name="Ĥ" unicode="&#x124;" horiz-adv-x="601" d=" M213,754 L341,947 L350,947 L478,754 L420,754 L346,855 L271,754 M93,0 L93,680 L165,680 L165,363 L529,363 L529,680 L601,680 L601,0 L529,0 L529,298 L165,298 L165,0"/> 
            <glyph glyph-name="ĥ" unicode="&#x125;" horiz-adv-x="446" d=" M123,770 L251,963 L260,963 L388,770 L330,770 L256,871 L181,770 M74,0 L74,722 L144,722 L144,333 Q164,375 202.5,399 Q241,423 291,423 Q361,423 403.5,377.5 Q446,332 446,252 L446,0 L376,0 L376,244 Q376,359 273,359 Q215,359 179.5,324 Q144,289 144,228 L144,0"/> 
            <glyph glyph-name="Ħ" unicode="&#x126;" horiz-adv-x="680" d=" M13,466 L13,520 L93,520 L93,680 L165,680 L165,520 L528,520 L528,680 L601,680 L601,520 L680,520 L680,466 L601,466 L601,0 L528,0 L528,298 L165,298 L165,0 L93,0 L93,466 M165,363 L528,363 L528,466 L165,466"/> 
            <glyph glyph-name="ħ" unicode="&#x127;" horiz-adv-x="446" d=" M-3,528 L-3,586 L74,586 L74,722 L144,722 L144,586 L287,586 L287,528 L144,528 L144,333 Q164,375 202.5,399 Q241,423 291,423 Q361,423 403.5,377.5 Q446,332 446,252 L446,0 L376,0 L376,244 Q376,359 273,359 Q215,359 179.5,324 Q144,289 144,228 L144,0 L74,0 L74,528"/> 
            <glyph glyph-name="Ī" unicode="&#x12A;" horiz-adv-x="241" d=" M96,0 L96,680 L169,680 L169,0 M24,769 L24,824 L241,824 L241,769"/> 
            <glyph glyph-name="ī" unicode="&#x12B;" horiz-adv-x="199" d=" M76,0 L76,414 L146,414 L146,0 M23,539 L23,594 L199,594 L199,539"/> 
            <glyph glyph-name="Į" unicode="&#x12E;" horiz-adv-x="230" d=" M96,-22 L96,680 L169,680 L169,10 L127,-59 Q96,-109 96,-142 Q96,-162 107,-172.5 Q118,-183 135,-183 Q165,-183 186,-148 L230,-173 Q200,-232 132,-232 Q93,-232 66,-209 Q39,-186 39,-144 Q39,-98 80,-43"/> 
            <glyph glyph-name="į" unicode="&#x12F;" horiz-adv-x="206" d=" M131,534 Q91,534 76,548 Q61,562 61,583 Q61,604 76,618.5 Q91,633 111,633 Q131,633 146,618.5 Q161,604 161,583 Q161,562 131,534 M76,-16 L76,414 L146,414 L146,12 L103,-59 Q72,-109 72,-142 Q72,-162 83,-172.5 Q94,-183 111,-183 Q141,-183 162,-148 L206,-173 Q176,-232 108,-232 Q69,-232 42,-209 Q15,-186 15,-144 Q15,-98 56,-43"/> 
            <glyph glyph-name="İ" unicode="&#x130;" horiz-adv-x="183" d=" M96,0 L96,680 L169,680 L169,0 M153,756 Q113,756 98,770 Q83,784 83,805 Q83,826 98,840.5 Q113,855 133,855 Q153,855 168,840.5 Q183,826 183,805 Q183,784 153,756"/> 
            <glyph glyph-name="ı" unicode="&#x131;" horiz-adv-x="146" d=" M76,0 L76,414 L146,414 L146,0"/> 
            <glyph glyph-name="Ĵ" unicode="&#x134;" horiz-adv-x="485" d=" M220,754 L348,947 L357,947 L485,754 L427,754 L353,855 L278,754 M209,-8 Q88,-8 33,94 L92,131 Q135,57 206,57 Q258,57 288,87.5 Q318,118 318,181 L318,680 L391,680 L391,179 Q391,88 341,40 Q291,-8 209,-8"/> 
            <glyph glyph-name="ĵ" unicode="&#x135;" horiz-adv-x="243" d=" M35,-222 Q-24,-222 -57,-181 L-20,-139 Q5,-162 30,-162 Q76,-162 76,-99 L76,414 L146,414 L146,-98 Q146,-158 116,-190 Q86,-222 35,-222 M-22,503 L106,696 L115,696 L243,503 L185,503 L111,604 L36,503"/> 
            <glyph glyph-name="Ķ" unicode="&#x136;" horiz-adv-x="577" d=" M261,-256 L293,-157 Q280,-152 270.5,-139.5 Q261,-127 261,-110 Q261,-89 276.5,-74 Q292,-59 312,-59 Q333,-59 348.5,-74 Q364,-89 364,-110 Q364,-127 352,-149 L299,-256 M93,0 L93,680 L165,680 L165,375 Q165,339 160,286 Q182,331 207,363 L467,680 L549,680 L302,376 L577,0 L489,0 L255,323 L165,216 L165,0"/> 
            <glyph glyph-name="ķ" unicode="&#x137;" horiz-adv-x="442" d=" M188,-256 L220,-157 Q207,-152 197.5,-139.5 Q188,-127 188,-110 Q188,-89 203.5,-74 Q219,-59 239,-59 Q260,-59 275.5,-74 Q291,-89 291,-110 Q291,-127 279,-149 L226,-256 M144,126 L144,0 L74,0 L74,722 L144,722 L144,259 Q144,228 139,200 L336,414 L417,414 L258,240 L442,0 L359,0 L209,194"/> 
            <glyph glyph-name="Ĺ" unicode="&#x139;" horiz-adv-x="486" d=" M102,749 L170,942 L250,942 L157,749 M93,0 L93,680 L165,680 L165,64 L486,64 L486,0"/> 
            <glyph glyph-name="ĺ" unicode="&#x13A;" horiz-adv-x="235" d=" M87,765 L155,958 L235,958 L142,765 M79,0 L79,722 L149,722 L149,0"/> 
            <glyph glyph-name="Ļ" unicode="&#x13B;" horiz-adv-x="486" d=" M235,-256 L267,-157 Q254,-152 244.5,-139.5 Q235,-127 235,-110 Q235,-89 250.5,-74 Q266,-59 286,-59 Q307,-59 322.5,-74 Q338,-89 338,-110 Q338,-127 326,-149 L273,-256 M93,0 L93,680 L165,680 L165,64 L486,64 L486,0"/> 
            <glyph glyph-name="ļ" unicode="&#x13C;" horiz-adv-x="168" d=" M65,-256 L97,-157 Q84,-152 74.5,-139.5 Q65,-127 65,-110 Q65,-89 80.5,-74 Q96,-59 116,-59 Q137,-59 152.5,-74 Q168,-89 168,-110 Q168,-127 156,-149 L103,-256 M79,0 L79,722 L149,722 L149,0"/> 
            <glyph glyph-name="Ľ" unicode="&#x13D;" horiz-adv-x="486" d=" M309,482 L343,586 Q329,591 319.5,604 Q310,617 310,634 Q310,656 325.5,671.5 Q341,687 362,687 Q383,687 399,671.5 Q415,656 415,635 Q415,622 402,594 L346,482 M93,0 L93,680 L165,680 L165,64 L486,64 L486,0"/> 
            <glyph glyph-name="ľ" unicode="&#x13E;" horiz-adv-x="330" d=" M224,482 L258,586 Q244,591 234.5,604 Q225,617 225,634 Q225,656 240.5,671.5 Q256,687 277,687 Q298,687 314,671.5 Q330,656 330,635 Q330,622 317,594 L261,482 M79,0 L79,722 L149,722 L149,0"/> 
            <glyph glyph-name="Ł" unicode="&#x141;" horiz-adv-x="490" d=" M96,0 L96,252 L21,223 L21,289 L96,318 L96,680 L169,680 L169,344 L368,422 L368,357 L169,279 L169,64 L490,64 L490,0"/> 
            <glyph glyph-name="ł" unicode="&#x142;" horiz-adv-x="257" d=" M99,0 L99,268 L14,217 L14,286 L99,338 L99,722 L169,722 L169,378 L257,432 L257,362 L169,309 L169,0"/> 
            <glyph glyph-name="Ń" unicode="&#x143;" horiz-adv-x="620" d=" M608,-7 L202,473 Q169,511 155,535 Q155,534 156.5,520 Q158,506 159.5,488.5 Q161,471 161,459 L161,0 L93,0 L93,687 L105,687 L511,207 Q517,199 525.5,188 Q534,177 540,168.5 Q546,160 552,152.5 Q558,145 558,144 L557,158 Q556,171 554.5,189.5 Q553,208 553,221 L553,680 L620,680 L620,-7 M331,749 L399,942 L479,942 L386,749"/> 
            <glyph glyph-name="ń" unicode="&#x144;" horiz-adv-x="446" d=" M229,498 L297,691 L377,691 L284,498 M74,0 L74,414 L144,414 L142,329 Q162,373 201.5,398 Q241,423 291,423 Q361,423 403.5,377.5 Q446,332 446,252 L446,0 L376,0 L376,244 Q376,359 273,359 Q215,359 179.5,324 Q144,289 144,228 L144,0"/> 
            <glyph glyph-name="Ņ" unicode="&#x145;" horiz-adv-x="620" d=" M608,-7 L202,473 Q169,511 155,535 Q155,534 156.5,520 Q158,506 159.5,488.5 Q161,471 161,459 L161,0 L93,0 L93,687 L105,687 L511,207 Q517,199 525.5,188 Q534,177 540,168.5 Q546,160 552,152.5 Q558,145 558,144 L557,158 Q556,171 554.5,189.5 Q553,208 553,221 L553,680 L620,680 L620,-7 M309,-256 L341,-157 Q328,-152 318.5,-139.5 Q309,-127 309,-110 Q309,-89 324.5,-74 Q340,-59 360,-59 Q381,-59 396.5,-74 Q412,-89 412,-110 Q412,-127 400,-149 L347,-256"/> 
            <glyph glyph-name="ņ" unicode="&#x146;" horiz-adv-x="446" d=" M207,-256 L239,-157 Q226,-152 216.5,-139.5 Q207,-127 207,-110 Q207,-89 222.5,-74 Q238,-59 258,-59 Q279,-59 294.5,-74 Q310,-89 310,-110 Q310,-127 298,-149 L245,-256 M74,0 L74,414 L144,414 L142,329 Q162,373 201.5,398 Q241,423 291,423 Q361,423 403.5,377.5 Q446,332 446,252 L446,0 L376,0 L376,244 Q376,359 273,359 Q215,359 179.5,324 Q144,289 144,228 L144,0"/> 
            <glyph glyph-name="Ň" unicode="&#x147;" horiz-adv-x="620" d=" M608,-7 L202,473 Q169,511 155,535 Q155,534 156.5,520 Q158,506 159.5,488.5 Q161,471 161,459 L161,0 L93,0 L93,687 L105,687 L511,207 Q517,199 525.5,188 Q534,177 540,168.5 Q546,160 552,152.5 Q558,145 558,144 L557,158 Q556,171 554.5,189.5 Q553,208 553,221 L553,680 L620,680 L620,-7 M354,740 L226,932 L284,932 L358,831 L433,932 L491,932 L363,740"/> 
            <glyph glyph-name="ň" unicode="&#x148;" horiz-adv-x="446" d=" M252,495 L124,687 L182,687 L256,586 L331,687 L389,687 L261,495 M74,0 L74,414 L144,414 L142,329 Q162,373 201.5,398 Q241,423 291,423 Q361,423 403.5,377.5 Q446,332 446,252 L446,0 L376,0 L376,244 Q376,359 273,359 Q215,359 179.5,324 Q144,289 144,228 L144,0"/> 
            <glyph glyph-name="Ō" unicode="&#x14C;" horiz-adv-x="753" d=" M288,768 L288,823 L518,823 L518,768 M403,-8 Q256,-8 155,90 Q54,188 54,340 Q54,492 155,590 Q256,688 403,688 Q551,688 652,590 Q753,492 753,340 Q753,188 652,90 Q551,-8 403,-8 M403,57 Q522,57 600,137.5 Q678,218 678,340 Q678,462 600,542.5 Q522,623 403,623 Q285,623 207,542.5 Q129,462 129,340 Q129,218 207,137.5 Q285,57 403,57"/> 
            <glyph glyph-name="ō" unicode="&#x14D;" horiz-adv-x="486" d=" M151,539 L151,594 L381,594 L381,539 M268,-8 Q175,-8 111.5,54 Q48,116 48,207 Q48,298 111.5,360.5 Q175,423 268,423 Q360,423 423,360.5 Q486,298 486,207 Q486,116 423,54 Q360,-8 268,-8 M268,52 Q333,52 374,96 Q415,140 415,207 Q415,274 374,318 Q333,362 268,362 Q202,362 160.5,318 Q119,274 119,207 Q119,140 160.5,96 Q202,52 268,52"/> 
            <glyph glyph-name="Ő" unicode="&#x150;" horiz-adv-x="753" d=" M445,763 L513,956 L589,956 L500,763 M307,763 L374,956 L450,956 L362,763 M403,-8 Q256,-8 155,90 Q54,188 54,340 Q54,492 155,590 Q256,688 403,688 Q551,688 652,590 Q753,492 753,340 Q753,188 652,90 Q551,-8 403,-8 M403,57 Q522,57 600,137.5 Q678,218 678,340 Q678,462 600,542.5 Q522,623 403,623 Q285,623 207,542.5 Q129,462 129,340 Q129,218 207,137.5 Q285,57 403,57"/> 
            <glyph glyph-name="ő" unicode="&#x151;" horiz-adv-x="486" d=" M308,505 L376,698 L452,698 L363,505 M170,505 L237,698 L313,698 L225,505 M268,-8 Q175,-8 111.5,54 Q48,116 48,207 Q48,298 111.5,360.5 Q175,423 268,423 Q360,423 423,360.5 Q486,298 486,207 Q486,116 423,54 Q360,-8 268,-8 M268,52 Q333,52 374,96 Q415,140 415,207 Q415,274 374,318 Q333,362 268,362 Q202,362 160.5,318 Q119,274 119,207 Q119,140 160.5,96 Q202,52 268,52"/> 
            <glyph glyph-name="Œ" unicode="&#x152;" horiz-adv-x="928" d=" M412,0 Q248,0 151,94 Q54,188 54,340 Q54,493 150.5,586.5 Q247,680 412,680 L914,680 L914,616 L573,616 L573,373 L877,373 L877,310 L573,310 L573,64 L928,64 L928,0 M418,65 L501,65 L501,615 L418,615 Q277,615 203,540.5 Q129,466 129,340 Q129,214 203,139.5 Q277,65 418,65"/> 
            <glyph glyph-name="œ" unicode="&#x153;" horiz-adv-x="834" d=" M482,184 Q489,123 529,87 Q569,51 636,51 Q718,51 767,106 L810,64 Q746,-8 637,-8 Q569,-8 520.5,23 Q472,54 449,107 Q426,55 378,23.5 Q330,-8 268,-8 Q175,-8 111.5,54 Q48,116 48,207 Q48,298 111.5,360.5 Q175,423 268,423 Q331,423 378.5,391.5 Q426,360 449,307 Q471,360 518,391.5 Q565,423 626,423 Q724,423 781,355.5 Q838,288 834,184 M483,237 L764,237 Q759,293 723.5,328.5 Q688,364 626,364 Q568,364 529.5,329.5 Q491,295 483,237 M268,52 Q333,52 374,96 Q415,140 415,207 Q415,274 374,318 Q333,362 268,362 Q202,362 160.5,318 Q119,274 119,207 Q119,140 160.5,96 Q202,52 268,52"/> 
            <glyph glyph-name="Ŕ" unicode="&#x154;" horiz-adv-x="562" d=" M269,749 L337,942 L417,942 L324,749 M93,0 L93,680 L297,680 Q408,680 473.5,627 Q539,574 539,472 Q539,399 501.5,350 Q464,301 396,280 L562,0 L477,0 L321,268 Q311,267 289,267 L165,267 L165,0 M165,329 L293,329 Q464,329 464,472 Q464,616 293,616 L165,616"/> 
            <glyph glyph-name="ŕ" unicode="&#x155;" horiz-adv-x="335" d=" M167,498 L235,691 L315,691 L222,498 M74,0 L74,414 L144,414 L142,333 Q179,422 263,422 Q306,422 335,402 L308,341 Q285,357 251,357 Q204,357 174,322 Q144,287 144,218 L144,0"/> 
            <glyph glyph-name="Ŗ" unicode="&#x156;" horiz-adv-x="562" d=" M258,-256 L290,-157 Q277,-152 267.5,-139.5 Q258,-127 258,-110 Q258,-89 273.5,-74 Q289,-59 309,-59 Q330,-59 345.5,-74 Q361,-89 361,-110 Q361,-127 349,-149 L296,-256 M93,0 L93,680 L297,680 Q408,680 473.5,627 Q539,574 539,472 Q539,399 501.5,350 Q464,301 396,280 L562,0 L477,0 L321,268 Q311,267 289,267 L165,267 L165,0 M165,329 L293,329 Q464,329 464,472 Q464,616 293,616 L165,616"/> 
            <glyph glyph-name="ŗ" unicode="&#x157;" horiz-adv-x="335" d=" M61,-256 L93,-157 Q80,-152 70.5,-139.5 Q61,-127 61,-110 Q61,-89 76.5,-74 Q92,-59 112,-59 Q133,-59 148.5,-74 Q164,-89 164,-110 Q164,-127 152,-149 L99,-256 M74,0 L74,414 L144,414 L142,333 Q179,422 263,422 Q306,422 335,402 L308,341 Q285,357 251,357 Q204,357 174,322 Q144,287 144,218 L144,0"/> 
            <glyph glyph-name="Ř" unicode="&#x158;" horiz-adv-x="562" d=" M291,740 L163,932 L221,932 L295,831 L370,932 L428,932 L300,740 M93,0 L93,680 L297,680 Q408,680 473.5,627 Q539,574 539,472 Q539,399 501.5,350 Q464,301 396,280 L562,0 L477,0 L321,268 Q311,267 289,267 L165,267 L165,0 M165,329 L293,329 Q464,329 464,472 Q464,616 293,616 L165,616"/> 
            <glyph glyph-name="ř" unicode="&#x159;" horiz-adv-x="335" d=" M190,495 L62,687 L120,687 L194,586 L269,687 L327,687 L199,495 M74,0 L74,414 L144,414 L142,333 Q179,422 263,422 Q306,422 335,402 L308,341 Q285,357 251,357 Q204,357 174,322 Q144,287 144,218 L144,0"/> 
            <glyph glyph-name="Ś" unicode="&#x15A;" horiz-adv-x="477" d=" M229,749 L297,942 L377,942 L284,749 M266,-8 Q98,-8 29,130 L89,162 Q117,113 157.5,84.5 Q198,56 264,56 Q325,56 365,87.5 Q405,119 405,172 Q405,221 375,252.5 Q345,284 277,314 L223,339 Q145,374 109,415.5 Q73,457 73,525 Q73,598 123.5,643 Q174,688 252,688 Q375,688 436,586 L378,550 Q332,624 252,624 Q202,624 173,597.5 Q144,571 144,527 Q144,484 168,458.5 Q192,433 252,405 L306,380 Q395,341 436,293.5 Q477,246 477,172 Q477,89 418,40.5 Q359,-8 266,-8"/> 
            <glyph glyph-name="ś" unicode="&#x15B;" horiz-adv-x="364" d=" M179,498 L247,691 L327,691 L234,498 M213,-8 Q149,-8 103.5,19 Q58,46 36,88 L90,119 Q132,49 210,49 Q252,49 275,65.5 Q298,82 298,111 Q298,142 275.5,155.5 Q253,169 190,187 Q130,204 97.5,230.5 Q65,257 65,310 Q65,362 103.5,392.5 Q142,423 201,423 Q292,423 339,356 L291,319 Q257,366 201,366 Q168,366 148.5,351.5 Q129,337 129,313 Q129,285 149,272 Q169,259 227,242 Q291,225 327.5,197 Q364,169 364,115 Q364,60 326,26 Q288,-8 213,-8"/> 
            <glyph glyph-name="Ŝ" unicode="&#x15C;" horiz-adv-x="477" d=" M125,754 L253,947 L262,947 L390,754 L332,754 L258,855 L183,754 M266,-8 Q98,-8 29,130 L89,162 Q117,113 157.5,84.5 Q198,56 264,56 Q325,56 365,87.5 Q405,119 405,172 Q405,221 375,252.5 Q345,284 277,314 L223,339 Q145,374 109,415.5 Q73,457 73,525 Q73,598 123.5,643 Q174,688 252,688 Q375,688 436,586 L378,550 Q332,624 252,624 Q202,624 173,597.5 Q144,571 144,527 Q144,484 168,458.5 Q192,433 252,405 L306,380 Q395,341 436,293.5 Q477,246 477,172 Q477,89 418,40.5 Q359,-8 266,-8"/> 
            <glyph glyph-name="ŝ" unicode="&#x15D;" horiz-adv-x="364" d=" M74,503 L202,696 L211,696 L339,503 L281,503 L207,604 L132,503 M213,-8 Q149,-8 103.5,19 Q58,46 36,88 L90,119 Q132,49 210,49 Q252,49 275,65.5 Q298,82 298,111 Q298,142 275.5,155.5 Q253,169 190,187 Q130,204 97.5,230.5 Q65,257 65,310 Q65,362 103.5,392.5 Q142,423 201,423 Q292,423 339,356 L291,319 Q257,366 201,366 Q168,366 148.5,351.5 Q129,337 129,313 Q129,285 149,272 Q169,259 227,242 Q291,225 327.5,197 Q364,169 364,115 Q364,60 326,26 Q288,-8 213,-8"/> 
            <glyph glyph-name="Ş" unicode="&#x15E;" horiz-adv-x="477" d=" M266,-232 Q194,-232 165,-173 L205,-148 Q225,-187 262,-187 Q282,-187 295.5,-174.5 Q309,-162 309,-140 Q309,-119 295,-105.5 Q281,-92 254,-92 L233,-92 L233,-6 Q91,6 29,130 L89,162 Q117,113 157.5,84.5 Q198,56 264,56 Q325,56 365,87.5 Q405,119 405,172 Q405,221 375,252.5 Q345,284 277,314 L223,339 Q145,374 109,415.5 Q73,457 73,525 Q73,598 123.5,643 Q174,688 252,688 Q375,688 436,586 L378,550 Q332,624 252,624 Q202,624 173,597.5 Q144,571 144,527 Q144,484 168,458.5 Q192,433 252,405 L306,380 Q395,341 436,293.5 Q477,246 477,172 Q477,92 422,44 Q367,-4 279,-8 L279,-53 Q314,-58 338,-82 Q362,-106 362,-144 Q362,-184 333.5,-208 Q305,-232 266,-232"/> 
            <glyph glyph-name="ş" unicode="&#x15F;" horiz-adv-x="364" d=" M210,-232 Q138,-232 109,-173 L149,-148 Q169,-187 206,-187 Q226,-187 239.5,-174.5 Q253,-162 253,-140 Q253,-119 239,-105.5 Q225,-92 198,-92 L177,-92 L177,-5 Q77,8 36,88 L90,119 Q132,49 210,49 Q252,49 275,65.5 Q298,82 298,111 Q298,142 275.5,155.5 Q253,169 190,187 Q130,204 97.5,230.5 Q65,257 65,310 Q65,362 103.5,392.5 Q142,423 201,423 Q292,423 339,356 L291,319 Q257,366 201,366 Q168,366 148.5,351.5 Q129,337 129,313 Q129,285 149,272 Q169,259 227,242 Q291,225 327.5,197 Q364,169 364,115 Q364,62 328.5,28.5 Q293,-5 223,-8 L223,-53 Q258,-58 282,-82 Q306,-106 306,-144 Q306,-184 277.5,-208 Q249,-232 210,-232"/> 
            <glyph glyph-name="Š" unicode="&#x160;" horiz-adv-x="477" d=" M253,740 L125,932 L183,932 L257,831 L332,932 L390,932 L262,740 M266,-8 Q98,-8 29,130 L89,162 Q117,113 157.5,84.5 Q198,56 264,56 Q325,56 365,87.5 Q405,119 405,172 Q405,221 375,252.5 Q345,284 277,314 L223,339 Q145,374 109,415.5 Q73,457 73,525 Q73,598 123.5,643 Q174,688 252,688 Q375,688 436,586 L378,550 Q332,624 252,624 Q202,624 173,597.5 Q144,571 144,527 Q144,484 168,458.5 Q192,433 252,405 L306,380 Q395,341 436,293.5 Q477,246 477,172 Q477,89 418,40.5 Q359,-8 266,-8"/> 
            <glyph glyph-name="š" unicode="&#x161;" horiz-adv-x="364" d=" M202,495 L74,687 L132,687 L206,586 L281,687 L339,687 L211,495 M213,-8 Q149,-8 103.5,19 Q58,46 36,88 L90,119 Q132,49 210,49 Q252,49 275,65.5 Q298,82 298,111 Q298,142 275.5,155.5 Q253,169 190,187 Q130,204 97.5,230.5 Q65,257 65,310 Q65,362 103.5,392.5 Q142,423 201,423 Q292,423 339,356 L291,319 Q257,366 201,366 Q168,366 148.5,351.5 Q129,337 129,313 Q129,285 149,272 Q169,259 227,242 Q291,225 327.5,197 Q364,169 364,115 Q364,60 326,26 Q288,-8 213,-8"/> 
            <glyph glyph-name="Ţ" unicode="&#x162;" horiz-adv-x="523" d=" M228,-256 L260,-157 Q247,-152 237.5,-139.5 Q228,-127 228,-110 Q228,-89 243.5,-74 Q259,-59 279,-59 Q300,-59 315.5,-74 Q331,-89 331,-110 Q331,-127 319,-149 L266,-256 M242,0 L242,616 L33,616 L33,680 L523,680 L523,616 L314,616 L314,0"/> 
            <glyph glyph-name="ţ" unicode="&#x163;" horiz-adv-x="309" d=" M138,-256 L170,-157 Q157,-152 147.5,-139.5 Q138,-127 138,-110 Q138,-89 153.5,-74 Q169,-59 189,-59 Q210,-59 225.5,-74 Q241,-89 241,-110 Q241,-127 229,-149 L176,-256 M209,-9 Q158,-9 128,23 Q98,55 98,125 L98,355 L34,355 L34,414 L98,414 L98,556 L167,556 L167,414 L283,414 L283,355 L167,355 L167,124 Q167,52 216,52 Q249,52 275,78 L309,31 Q269,-9 209,-9"/> 
            <glyph glyph-name="Ť" unicode="&#x164;" horiz-adv-x="523" d=" M273,740 L145,932 L203,932 L277,831 L352,932 L410,932 L282,740 M242,0 L242,616 L33,616 L33,680 L523,680 L523,616 L314,616 L314,0"/> 
            <glyph glyph-name="ť" unicode="&#x165;" horiz-adv-x="405" d=" M209,-9 Q158,-9 128,23 Q98,55 98,125 L98,355 L34,355 L34,414 L98,414 L98,556 L167,556 L167,414 L283,414 L283,355 L167,355 L167,124 Q167,52 216,52 Q249,52 275,78 L309,31 Q269,-9 209,-9 M299,482 L333,586 Q320,591 310,604 Q300,617 300,634 Q300,656 315.5,671.5 Q331,687 352,687 Q373,687 389,671.5 Q405,656 405,635 Q405,618 392,594 L337,482"/> 
            <glyph glyph-name="Ū" unicode="&#x16A;" horiz-adv-x="575" d=" M439,-8 Q223,-8 155,54.5 Q87,117 87,232 L87,680 L159,680 L159,237 Q159,148 204.5,102 Q250,56 331,56 Q412,56 457.5,102 Q503,148 503,237 L503,680 L575,680 L575,232 Q575,117 439,-8 M215,768 L215,823 L445,823 L445,768"/> 
            <glyph glyph-name="ū" unicode="&#x16B;" horiz-adv-x="441" d=" M225,-9 Q155,-9 112.5,36.5 Q70,82 70,160 L70,414 L140,414 L140,167 Q140,55 242,55 Q301,55 336,90.5 Q371,126 371,186 L371,414 L441,414 L441,0 L371,0 L373,84 Q353,40 314,15.5 Q275,-9 225,-9 M141,539 L141,594 L371,594 L371,539"/> 
            <glyph glyph-name="Ŭ" unicode="&#x16C;" horiz-adv-x="575" d=" M439,-8 Q223,-8 155,54.5 Q87,117 87,232 L87,680 L159,680 L159,237 Q159,148 204.5,102 Q250,56 331,56 Q412,56 457.5,102 Q503,148 503,237 L503,680 L575,680 L575,232 Q575,117 439,-8 M386,750 Q274,750 240.5,782 Q207,814 199,867 L255,876 Q271,805 330,805 Q389,805 405,876 L461,867 Q453,814 386,750"/> 
            <glyph glyph-name="ŭ" unicode="&#x16D;" horiz-adv-x="441" d=" M225,-9 Q155,-9 112.5,36.5 Q70,82 70,160 L70,414 L140,414 L140,167 Q140,55 242,55 Q301,55 336,90.5 Q371,126 371,186 L371,414 L441,414 L441,0 L371,0 L373,84 Q353,40 314,15.5 Q275,-9 225,-9 M312,499 Q200,499 166.5,531 Q133,563 125,616 L181,625 Q197,554 256,554 Q315,554 331,625 L387,616 Q379,563 312,499"/> 
            <glyph glyph-name="Ů" unicode="&#x16E;" horiz-adv-x="575" d=" M374,698 Q286,698 255.5,727.5 Q225,757 225,798 Q225,840 255.5,869.5 Q286,899 330,899 Q374,899 404.5,869.5 Q435,840 435,798 Q435,757 374,698 M307,742 Q353,742 368,757.5 Q383,773 383,798 Q383,824 368.5,839 Q354,854 330,854 Q306,854 291.5,839 Q277,824 277,798 Q277,773 307,742 M439,-8 Q223,-8 155,54.5 Q87,117 87,232 L87,680 L159,680 L159,237 Q159,148 204.5,102 Q250,56 331,56 Q412,56 457.5,102 Q503,148 503,237 L503,680 L575,680 L575,232 Q575,117 439,-8"/> 
            <glyph glyph-name="ů" unicode="&#x16F;" horiz-adv-x="441" d=" M300,484 Q212,484 181.5,513.5 Q151,543 151,584 Q151,626 181.5,655.5 Q212,685 256,685 Q300,685 330.5,655.5 Q361,626 361,584 Q361,543 300,484 M233,528 Q279,528 294,543.5 Q309,559 309,584 Q309,610 294.5,625 Q280,640 256,640 Q232,640 217.5,625 Q203,610 203,584 Q203,559 233,528 M225,-9 Q155,-9 112.5,36.5 Q70,82 70,160 L70,414 L140,414 L140,167 Q140,55 242,55 Q301,55 336,90.5 Q371,126 371,186 L371,414 L441,414 L441,0 L371,0 L373,84 Q353,40 314,15.5 Q275,-9 225,-9"/> 
            <glyph glyph-name="Ű" unicode="&#x170;" horiz-adv-x="575" d=" M439,-8 Q223,-8 155,54.5 Q87,117 87,232 L87,680 L159,680 L159,237 Q159,148 204.5,102 Q250,56 331,56 Q412,56 457.5,102 Q503,148 503,237 L503,680 L575,680 L575,232 Q575,117 439,-8 M372,763 L440,956 L516,956 L427,763 M234,763 L301,956 L377,956 L289,763"/> 
            <glyph glyph-name="ű" unicode="&#x171;" horiz-adv-x="442" d=" M225,-9 Q155,-9 112.5,36.5 Q70,82 70,160 L70,414 L140,414 L140,167 Q140,55 242,55 Q301,55 336,90.5 Q371,126 371,186 L371,414 L441,414 L441,0 L371,0 L373,84 Q353,40 314,15.5 Q275,-9 225,-9 M298,505 L366,698 L442,698 L353,505 M160,505 L227,698 L303,698 L215,505"/> 
            <glyph glyph-name="Ų" unicode="&#x172;" horiz-adv-x="575" d=" M308,-7 Q208,0 147.5,61.5 Q87,123 87,232 L87,680 L159,680 L159,237 Q159,148 204.5,102 Q250,56 331,56 Q412,56 457.5,102 Q503,148 503,237 L503,680 L575,680 L575,232 Q575,125 515.5,63.5 Q456,2 360,-7 L328,-59 Q297,-109 297,-142 Q297,-162 308,-172.5 Q319,-183 336,-183 Q366,-183 387,-148 L431,-173 Q401,-232 333,-232 Q294,-232 267,-209 Q240,-186 240,-144 Q240,-98 281,-43"/> 
            <glyph glyph-name="ų" unicode="&#x173;" horiz-adv-x="499" d=" M370,-15 L373,84 Q353,40 314,15.5 Q275,-9 225,-9 Q155,-9 112.5,36.5 Q70,82 70,160 L70,414 L140,414 L140,167 Q140,55 242,55 Q301,55 336,90.5 Q371,126 371,186 L371,414 L441,414 L441,15 L396,-59 Q365,-109 365,-142 Q365,-162 376,-172.5 Q387,-183 404,-183 Q434,-183 455,-148 L499,-173 Q469,-232 401,-232 Q362,-232 335,-209 Q308,-186 308,-144 Q308,-98 349,-43"/> 
            <glyph glyph-name="Ÿ" unicode="&#x178;" horiz-adv-x="576" d=" M271,0 L271,250 L34,680 L116,680 L280,379 Q286,368 293,351.5 Q300,335 304.5,323 Q309,311 309,310 Q316,338 338,379 L501,680 L576,680 L345,252 L345,0 M241,759 Q205,759 191,772.5 Q177,786 177,805 Q177,824 191,837.5 Q205,851 223,851 Q241,851 255,837.5 Q269,824 269,805 Q269,786 241,759 M411,759 Q375,759 361,772.5 Q347,786 347,805 Q347,824 361,837.5 Q375,851 393,851 Q411,851 425,837.5 Q439,824 439,805 Q439,786 411,759"/> 
            <glyph glyph-name="Ź" unicode="&#x179;" horiz-adv-x="533" d=" M279,749 L347,942 L427,942 L334,749 M39,0 L39,11 L419,616 L93,616 L93,680 L531,680 L531,669 L152,64 L533,64 L533,0"/> 
            <glyph glyph-name="ź" unicode="&#x17A;" horiz-adv-x="384" d=" M192,498 L260,691 L340,691 L247,498 M32,0 L32,10 L271,356 L58,356 L58,414 L384,414 L384,403 L143,58 L379,58 L379,0"/> 
            <glyph glyph-name="Ż" unicode="&#x17B;" horiz-adv-x="533" d=" M39,0 L39,11 L419,616 L93,616 L93,680 L531,680 L531,669 L152,64 L533,64 L533,0 M326,756 Q286,756 271,770 Q256,784 256,805 Q256,826 271,840.5 Q286,855 306,855 Q326,855 341,840.5 Q356,826 356,805 Q356,784 326,756"/> 
            <glyph glyph-name="ż" unicode="&#x17C;" horiz-adv-x="384" d=" M32,0 L32,10 L271,356 L58,356 L58,414 L384,414 L384,403 L143,58 L379,58 L379,0 M240,534 Q200,534 185,548 Q170,562 170,583 Q170,604 185,618.5 Q200,633 220,633 Q240,633 255,618.5 Q270,604 270,583 Q270,562 240,534"/> 
            <glyph glyph-name="Ž" unicode="&#x17D;" horiz-adv-x="533" d=" M301,740 L173,932 L231,932 L305,831 L380,932 L438,932 L310,740 M39,0 L39,11 L419,616 L93,616 L93,680 L531,680 L531,669 L152,64 L533,64 L533,0"/> 
            <glyph glyph-name="ž" unicode="&#x17E;" horiz-adv-x="384" d=" M215,495 L87,687 L145,687 L219,586 L294,687 L352,687 L224,495 M32,0 L32,10 L271,356 L58,356 L58,414 L384,414 L384,403 L143,58 L379,58 L379,0"/> 
            <glyph glyph-name="ƒ" unicode="&#x192;" horiz-adv-x="364" d=" M174,203 L127,-212 L59,-212 L106,203 L38,203 L38,260 L112,260 L138,484 Q152,618 261,618 Q331,618 364,564 L316,525 Q293,558 264,558 Q214,558 206,487 L180,260 L274,260 L274,203"/> 
            <glyph glyph-name="Ș" unicode="&#x218;" horiz-adv-x="477" d=" M208,-256 L240,-157 Q227,-152 217.5,-139.5 Q208,-127 208,-110 Q208,-89 223.5,-74 Q239,-59 259,-59 Q280,-59 295.5,-74 Q311,-89 311,-110 Q311,-127 299,-149 L246,-256 M266,-8 Q98,-8 29,130 L89,162 Q117,113 157.5,84.5 Q198,56 264,56 Q325,56 365,87.5 Q405,119 405,172 Q405,221 375,252.5 Q345,284 277,314 L223,339 Q145,374 109,415.5 Q73,457 73,525 Q73,598 123.5,643 Q174,688 252,688 Q375,688 436,586 L378,550 Q332,624 252,624 Q202,624 173,597.5 Q144,571 144,527 Q144,484 168,458.5 Q192,433 252,405 L306,380 Q395,341 436,293.5 Q477,246 477,172 Q477,89 418,40.5 Q359,-8 266,-8"/> 
            </font>
</defs>
</svg>
